{"accessors":[{"bufferView":0,"byteOffset":0,"componentType":5126,"count":4,"max":[0.0,0.02,0.0],"min":[0.0,0.0,-0.4],"type":"VEC3"},{"bufferView":0,"byteOffset":48,"componentType":5126,"count":4,"max":[0.75,0.02,0.0],"min":[0.75,0.0,-0.4],"type":"VEC3"},{"bufferView":0,"byteOffset":96,"componentType":5126,"count":4,"max":[0.75,0.02,0.0],"min":[0.0,0.0,0.0],"type":"VEC3"},{"bufferView":0,"byteOffset":144,"componentType":5126,"count":4,"max":[0.75,0.02,-0.4],"min":[0.0,0.0,-0.4],"type":"VEC3"},{"bufferView":0,"byteOffset":192,"componentType":5126,"count":4,"max":[0.75,0.0,0.0],"min":[0.0,0.0,-0.4],"type":"VEC3"},{"bufferView":0,"byteOffset":240,"componentType":5126,"count":4,"max":[0.75,0.02,0.0],"min":[0.0,0.02,-0.4],"type":"VEC3"},{"bufferView":0,"byteOffset":288,"componentType":5126,"count":4,"max":[0.0,0.4265,0.0],"min":[0.0,0.40650000000000003,-0.4],"type":"VEC3"},{"bufferView":0,"byteOffset":336,"componentType":5126,"count":4,"max":[0.75,0.4265,0.0],"min":[0.75,0.40650000000000003,-0.4],"type":"VEC3"},{"bufferView":0,"byteOffset":384,"componentType":5126,"count":4,"max":[0.75,0.4265,0.0],"min":[0.0,0.40650000000000003,0.0],"type":"VEC3"},{"bufferView":0,"byteOffset":432,"componentType":5126,"count":4,"max":[0.75,0.4265,-0.4],"min":[0.0,0.40650000000000003,-0.4],"type":"VEC3"},{"bufferView":0,"byteOffset":480,"componentType":5126,"count":4,"max":[0.75,0.40650000000000003,0.0],"min":[0.0,0.40650000000000003,-0.4],"type":"VEC3"},{"bufferView":0,"byteOffset":528,"componentType":5126,"count":4,"max":[0.75,0.4265,0.0],"min":[0.0,0.4265,-0.4],"type":"VEC3"},{"bufferView":0,"byteOffset":576,"componentType":5126,"count":4,"max":[0.0,0.40650000000000003,-0.39],"min":[0.0,0.02,-0.4],"type":"VEC3"},{"bufferView":0,"byteOffset":624,"componentType":5126,"count":4,"max":[0.75,0.40650000000000003,-0.39],"min":[0.75,0.02,-0.4],"type":"VEC3"},{"bufferView":0,"byteOffset":672,"componentType":5126,"count":4,"max":[0.75,0.40650000000000003,-0.39],"min":[0.0,0.02,-0.39],"type":"VEC3"},{"bufferView":0,"byteOffset":720,"componentType":5126,"count":4,"max":[0.75,0.40650000000000003,-0.4],"min":[0.0,0.02,-0.4],"type":"VEC3"},{"bufferView":0,"byteOffset":768,"componentType":5126,"count":4,"max":[0.75,0.02,-0.39],"min":[0.0,0.02,-0.4],"type":"VEC3"},{"bufferView":0,"byteOffset":816,"componentType":5126,"count":4,"max":[0.75,0.40650000000000003,-0.39],"min":[0.0,0.40650000000000003,-0.4],"type":"VEC3"},{"bufferView":0,"byteOffset":864,"componentType":5126,"count":4,"max":[0.0,0.40650000000000003,0.0],"min":[0.0,0.02,-0.39],"type":"VEC3"},{"bufferView":0,"byteOffset":912,"componentType":5126,"count":4,"max":[0.01,0.40650000000000003,0.0],"min":[0.01,0.02,-0.39],"type":"VEC3"},{"bufferView":0,"byteOffset":960,"componentType":5126,"count":4,"max":[0.01,0.40650000000000003,0.0],"min":[0.0,0.02,0.0],"type":"VEC3"},{"bufferView":0,"byteOffset":1008,"componentType":5126,"count":4,"max":[0.01,0.40650000000000003,-0.39],"min":[0.0,0.02,-0.39],"type":"VEC3"},{"bufferView":0,"byteOffset":1056,"componentType":5126,"count":4,"max":[0.01,0.02,0.0],"min":[0.0,0.02,-0.39],"type":"VEC3"},{"bufferView":0,"byteOffset":1104,"componentType":5126,"count":4,"max":[0.01,0.40650000000000003,0.0],"min":[0.0,0.40650000000000003,-0.39],"type":"VEC3"},{"bufferView":0,"byteOffset":1152,"componentType":5126,"count":4,"max":[0.74,0.40650000000000003,0.0],"min":[0.74,0.02,-0.39],"type":"VEC3"},{"bufferView":0,"byteOffset":1200,"componentType":5126,"count":4,"max":[0.75,0.40650000000000003,0.0],"min":[0.75,0.02,-0.39],"type":"VEC3"},{"bufferView":0,"byteOffset":1248,"componentType":5126,"count":4,"max":[0.75,0.40650000000000003,0.0],"min":[0.74,0.02,0.0],"type":"VEC3"},{"bufferView":0,"byteOffset":1296,"componentType":5126,"count":4,"max":[0.75,0.40650000000000003,-0.39],"min":[0.74,0.02,-0.39],"type":"VEC3"},{"bufferView":0,"byteOffset":1344,"componentType":5126,"count":4,"max":[0.75,0.02,0.0],"min":[0.74,0.02,-0.39],"type":"VEC3"},{"bufferView":0,"byteOffset":1392,"componentType":5126,"count":4,"max":[0.75,0.40650000000000003,0.0],"min":[0.74,0.40650000000000003,-0.39],"type":"VEC3"},{"bufferView":0,"byteOffset":1440,"componentType":5126,"count":112,"max":[0.735,0.4015,0.0],"min":[0.015,0.025,0.0],"type":"VEC3"},{"bufferView":0,"byteOffset":2784,"componentType":5126,"count":4,"max":[0.422,0.3815,0.0],"min":[0.328,0.3815,-0.01],"type":"VEC3"},{"bufferView":0,"byteOffset":2832,"componentType":5126,"count":54,"max":[0.328,0.3845,0.0],"min":[0.325,0.3815,-0.01],"type":"VEC3"},{"bufferView":0,"byteOffset":3480,"componentType":5126,"count":54,"max":[0.425,0.3845,0.0],"min":[0.422,0.3815,-0.01],"type":"VEC3"},{"bufferView":0,"byteOffset":4128,"componentType":5126,"count":4,"max":[0.325,0.3985,0.0],"min":[0.325,0.3845,-0.01],"type":"VEC3"},{"bufferView":0,"byteOffset":4176,"componentType":5126,"count":4,"max":[0.425,0.3985,0.0],"min":[0.425,0.3845,-0.01],"type":"VEC3"},{"bufferView":0,"byteOffset":4224,"componentType":5126,"count":54,"max":[0.325,0.4015,0.0],"min":[0.322,0.3985,-0.01],"type":"VEC3"},{"bufferView":0,"byteOffset":4872,"componentType":5126,"count":54,"max":[0.428,0.4015,0.0],"min":[0.425,0.3985,-0.01],"type":"VEC3"},{"bufferView":0,"byteOffset":5520,"componentType":5126,"count":4,"max":[0.322,0.4015,0.0],"min":[0.015,0.4015,-0.01],"type":"VEC3"},{"bufferView":0,"byteOffset":5568,"componentType":5126,"count":4,"max":[0.735,0.4015,0.0],"min":[0.428,0.4015,-0.01],"type":"VEC3"},{"bufferView":0,"byteOffset":5616,"componentType":5126,"count":4,"max":[0.015,0.4015,0.0],"min":[0.015,0.025,-0.01],"type":"VEC3"},{"bufferView":0,"byteOffset":5664,"componentType":5126,"count":4,"max":[0.735,0.4015,0.0],"min":[0.735,0.025,-0.01],"type":"VEC3"},{"bufferView":0,"byteOffset":5712,"componentType":5126,"count":4,"max":[0.735,0.025,0.0],"min":[0.015,0.025,-0.01],"type":"VEC3"},{"bufferView":0,"byteOffset":5760,"componentType":5126,"count":112,"max":[0.735,0.4015,-0.01],"min":[0.015,0.025,-0.01],"type":"VEC3"},{"bufferView":1,"byteOffset":0,"componentType":5126,"count":4,"type":"VEC3"},{"bufferView":1,"byteOffset":48,"componentType":5126,"count":4,"type":"VEC3"},{"bufferView":1,"byteOffset":96,"componentType":5126,"count":4,"type":"VEC3"},{"bufferView":1,"byteOffset":144,"componentType":5126,"count":4,"type":"VEC3"},{"bufferView":1,"byteOffset":192,"componentType":5126,"count":4,"type":"VEC3"},{"bufferView":1,"byteOffset":240,"componentType":5126,"count":4,"type":"VEC3"},{"bufferView":1,"byteOffset":288,"componentType":5126,"count":4,"type":"VEC3"},{"bufferView":1,"byteOffset":336,"componentType":5126,"count":4,"type":"VEC3"},{"bufferView":1,"byteOffset":384,"componentType":5126,"count":4,"type":"VEC3"},{"bufferView":1,"byteOffset":432,"componentType":5126,"count":4,"type":"VEC3"},{"bufferView":1,"byteOffset":480,"componentType":5126,"count":4,"type":"VEC3"},{"bufferView":1,"byteOffset":528,"componentType":5126,"count":4,"type":"VEC3"},{"bufferView":1,"byteOffset":576,"componentType":5126,"count":4,"type":"VEC3"},{"bufferView":1,"byteOffset":624,"componentType":5126,"count":4,"type":"VEC3"},{"bufferView":1,"byteOffset":672,"componentType":5126,"count":4,"type":"VEC3"},{"bufferView":1,"byteOffset":720,"componentType":5126,"count":4,"type":"VEC3"},{"bufferView":1,"byteOffset":768,"componentType":5126,"count":4,"type":"VEC3"},{"bufferView":1,"byteOffset":816,"componentType":5126,"count":4,"type":"VEC3"},{"bufferView":1,"byteOffset":864,"componentType":5126,"count":4,"type":"VEC3"},{"bufferView":1,"byteOffset":912,"componentType":5126,"count":4,"type":"VEC3"},{"bufferView":1,"byteOffset":960,"componentType":5126,"count":4,"type":"VEC3"},{"bufferView":1,"byteOffset":1008,"componentType":5126,"count":4,"type":"VEC3"},{"bufferView":1,"byteOffset":1056,"componentType":5126,"count":4,"type":"VEC3"},{"bufferView":1,"byteOffset":1104,"componentType":5126,"count":4,"type":"VEC3"},{"bufferView":1,"byteOffset":1152,"componentType":5126,"count":4,"type":"VEC3"},{"bufferView":1,"byteOffset":1200,"componentType":5126,"count":4,"type":"VEC3"},{"bufferView":1,"byteOffset":1248,"componentType":5126,"count":4,"type":"VEC3"},{"bufferView":1,"byteOffset":1296,"componentType":5126,"count":4,"type":"VEC3"},{"bufferView":1,"byteOffset":1344,"componentType":5126,"count":4,"type":"VEC3"},{"bufferView":1,"byteOffset":1392,"componentType":5126,"count":4,"type":"VEC3"},{"bufferView":1,"byteOffset":1440,"componentType":5126,"count":112,"type":"VEC3"},{"bufferView":1,"byteOffset":2784,"componentType":5126,"count":4,"type":"VEC3"},{"bufferView":1,"byteOffset":2832,"componentType":5126,"count":54,"type":"VEC3"},{"bufferView":1,"byteOffset":3480,"componentType":5126,"count":54,"type":"VEC3"},{"bufferView":1,"byteOffset":4128,"componentType":5126,"count":4,"type":"VEC3"},{"bufferView":1,"byteOffset":4176,"componentType":5126,"count":4,"type":"VEC3"},{"bufferView":1,"byteOffset":4224,"componentType":5126,"count":54,"type":"VEC3"},{"bufferView":1,"byteOffset":4872,"componentType":5126,"count":54,"type":"VEC3"},{"bufferView":1,"byteOffset":5520,"componentType":5126,"count":4,"type":"VEC3"},{"bufferView":1,"byteOffset":5568,"componentType":5126,"count":4,"type":"VEC3"},{"bufferView":1,"byteOffset":5616,"componentType":5126,"count":4,"type":"VEC3"},{"bufferView":1,"byteOffset":5664,"componentType":5126,"count":4,"type":"VEC3"},{"bufferView":1,"byteOffset":5712,"componentType":5126,"count":4,"type":"VEC3"},{"bufferView":1,"byteOffset":5760,"componentType":5126,"count":112,"type":"VEC3"},{"bufferView":2,"byteOffset":0,"componentType":5123,"count":6,"type":"SCALAR"},{"bufferView":2,"byteOffset":12,"componentType":5123,"count":6,"type":"SCALAR"},{"bufferView":2,"byteOffset":24,"componentType":5123,"count":6,"type":"SCALAR"},{"bufferView":2,"byteOffset":36,"componentType":5123,"count":6,"type":"SCALAR"},{"bufferView":2,"byteOffset":48,"componentType":5123,"count":6,"type":"SCALAR"},{"bufferView":2,"byteOffset":60,"componentType":5123,"count":6,"type":"SCALAR"},{"bufferView":2,"byteOffset":72,"componentType":5123,"count":6,"type":"SCALAR"},{"bufferView":2,"byteOffset":84,"componentType":5123,"count":6,"type":"SCALAR"},{"bufferView":2,"byteOffset":96,"componentType":5123,"count":6,"type":"SCALAR"},{"bufferView":2,"byteOffset":108,"componentType":5123,"count":6,"type":"SCALAR"},{"bufferView":2,"byteOffset":120,"componentType":5123,"count":6,"type":"SCALAR"},{"bufferView":2,"byteOffset":132,"componentType":5123,"count":6,"type":"SCALAR"},{"bufferView":2,"byteOffset":144,"componentType":5123,"count":6,"type":"SCALAR"},{"bufferView":2,"byteOffset":156,"componentType":5123,"count":6,"type":"SCALAR"},{"bufferView":2,"byteOffset":168,"componentType":5123,"count":6,"type":"SCALAR"},{"bufferView":2,"byteOffset":180,"componentType":5123,"count":6,"type":"SCALAR"},{"bufferView":2,"byteOffset":192,"componentType":5123,"count":6,"type":"SCALAR"},{"bufferView":2,"byteOffset":204,"componentType":5123,"count":6,"type":"SCALAR"},{"bufferView":2,"byteOffset":216,"componentType":5123,"count":6,"type":"SCALAR"},{"bufferView":2,"byteOffset":228,"componentType":5123,"count":6,"type":"SCALAR"},{"bufferView":2,"byteOffset":240,"componentType":5123,"count":6,"type":"SCALAR"},{"bufferView":2,"byteOffset":252,"componentType":5123,"count":6,"type":"SCALAR"},{"bufferView":2,"byteOffset":264,"componentType":5123,"count":6,"type":"SCALAR"},{"bufferView":2,"byteOffset":276,"componentType":5123,"count":6,"type":"SCALAR"},{"bufferView":2,"byteOffset":288,"componentType":5123,"count":6,"type":"SCALAR"},{"bufferView":2,"byteOffset":300,"componentType":5123,"count":6,"type":"SCALAR"},{"bufferView":2,"byteOffset":312,"componentType":5123,"count":6,"type":"SCALAR"},{"bufferView":2,"byteOffset":324,"componentType":5123,"count":6,"type":"SCALAR"},{"bufferView":2,"byteOffset":336,"componentType":5123,"count":6,"type":"SCALAR"},{"bufferView":2,"byteOffset":348,"componentType":5123,"count":6,"type":"SCALAR"},{"bufferView":2,"byteOffset":360,"componentType":5123,"count":330,"type":"SCALAR"},{"bufferView":2,"byteOffset":1020,"componentType":5123,"count":6,"type":"SCALAR"},{"bufferView":2,"byteOffset":1032,"componentType":5123,"count":156,"type":"SCALAR"},{"bufferView":2,"byteOffset":1344,"componentType":5123,"count":156,"type":"SCALAR"},{"bufferView":2,"byteOffset":1656,"componentType":5123,"count":6,"type":"SCALAR"},{"bufferView":2,"byteOffset":1668,"componentType":5123,"count":6,"type":"SCALAR"},{"bufferView":2,"byteOffset":1680,"componentType":5123,"count":156,"type":"SCALAR"},{"bufferView":2,"byteOffset":1992,"componentType":5123,"count":156,"type":"SCALAR"},{"bufferView":2,"byteOffset":2304,"componentType":5123,"count":6,"type":"SCALAR"},{"bufferView":2,"byteOffset":2316,"componentType":5123,"count":6,"type":"SCALAR"},{"bufferView":2,"byteOffset":2328,"componentType":5123,"count":6,"type":"SCALAR"},{"bufferView":2,"byteOffset":2340,"componentType":5123,"count":6,"type":"SCALAR"},{"bufferView":2,"byteOffset":2352,"componentType":5123,"count":6,"type":"SCALAR"},{"bufferView":2,"byteOffset":2364,"componentType":5123,"count":330,"type":"SCALAR"}],"asset":{"generator":"Open CASCADE Technology 7.8 [dev.opencascade.org]","version":"2.0"},"bufferViews":[{"buffer":0,"byteLength":7104,"byteOffset":0,"byteStride":12,"target":34962},{"buffer":0,"byteLength":7104,"byteOffset":7104,"byteStride":12,"target":34962},{"buffer":0,"byteLength":3024,"byteOffset":14208,"target":34963}],"buffers":[{"byteLength":17232,"uri":"iso_hylly_iso_ovi.bin"}],"materials":[{"name":"mat_0","pbrMetallicRoughness":{"baseColorFactor":[0.4178845286369324,0.4620771110057831,0.508880615234375,1.0]},"doubleSided":true}],"meshes":[{"name":"runkoObj","primitives":[{"attributes":{"NORMAL":44,"POSITION":0},"indices":88,"material":0,"mode":4},{"attributes":{"NORMAL":45,"POSITION":1},"indices":89,"material":0,"mode":4},{"attributes":{"NORMAL":46,"POSITION":2},"indices":90,"material":0,"mode":4},{"attributes":{"NORMAL":47,"POSITION":3},"indices":91,"material":0,"mode":4},{"attributes":{"NORMAL":48,"POSITION":4},"indices":92,"material":0,"mode":4},{"attributes":{"NORMAL":49,"POSITION":5},"indices":93,"material":0,"mode":4},{"attributes":{"NORMAL":50,"POSITION":6},"indices":94,"material":0,"mode":4},{"attributes":{"NORMAL":51,"POSITION":7},"indices":95,"material":0,"mode":4},{"attributes":{"NORMAL":52,"POSITION":8},"indices":96,"material":0,"mode":4},{"attributes":{"NORMAL":53,"POSITION":9},"indices":97,"material":0,"mode":4},{"attributes":{"NORMAL":54,"POSITION":10},"indices":98,"material":0,"mode":4},{"attributes":{"NORMAL":55,"POSITION":11},"indices":99,"material":0,"mode":4},{"attributes":{"NORMAL":56,"POSITION":12},"indices":100,"material":0,"mode":4},{"attributes":{"NORMAL":57,"POSITION":13},"indices":101,"material":0,"mode":4},{"attributes":{"NORMAL":58,"POSITION":14},"indices":102,"material":0,"mode":4},{"attributes":{"NORMAL":59,"POSITION":15},"indices":103,"material":0,"mode":4},{"attributes":{"NORMAL":60,"POSITION":16},"indices":104,"material":0,"mode":4},{"attributes":{"NORMAL":61,"POSITION":17},"indices":105,"material":0,"mode":4},{"attributes":{"NORMAL":62,"POSITION":18},"indices":106,"material":0,"mode":4},{"attributes":{"NORMAL":63,"POSITION":19},"indices":107,"material":0,"mode":4},{"attributes":{"NORMAL":64,"POSITION":20},"indices":108,"material":0,"mode":4},{"attributes":{"NORMAL":65,"POSITION":21},"indices":109,"material":0,"mode":4},{"attributes":{"NORMAL":66,"POSITION":22},"indices":110,"material":0,"mode":4},{"attributes":{"NORMAL":67,"POSITION":23},"indices":111,"material":0,"mode":4},{"attributes":{"NORMAL":68,"POSITION":24},"indices":112,"material":0,"mode":4},{"attributes":{"NORMAL":69,"POSITION":25},"indices":113,"material":0,"mode":4},{"attributes":{"NORMAL":70,"POSITION":26},"indices":114,"material":0,"mode":4},{"attributes":{"NORMAL":71,"POSITION":27},"indices":115,"material":0,"mode":4},{"attributes":{"NORMAL":72,"POSITION":28},"indices":116,"material":0,"mode":4},{"attributes":{"NORMAL":73,"POSITION":29},"indices":117,"material":0,"mode":4}]},{"name":"oviObj","primitives":[{"attributes":{"NORMAL":74,"POSITION":30},"indices":118,"material":0,"mode":4},{"attributes":{"NORMAL":75,"POSITION":31},"indices":119,"material":0,"mode":4},{"attributes":{"NORMAL":76,"POSITION":32},"indices":120,"material":0,"mode":4},{"attributes":{"NORMAL":77,"POSITION":33},"indices":121,"material":0,"mode":4},{"attributes":{"NORMAL":78,"POSITION":34},"indices":122,"material":0,"mode":4},{"attributes":{"NORMAL":79,"POSITION":35},"indices":123,"material":0,"mode":4},{"attributes":{"NORMAL":80,"POSITION":36},"indices":124,"material":0,"mode":4},{"attributes":{"NORMAL":81,"POSITION":37},"indices":125,"material":0,"mode":4},{"attributes":{"NORMAL":82,"POSITION":38},"indices":126,"material":0,"mode":4},{"attributes":{"NORMAL":83,"POSITION":39},"indices":127,"material":0,"mode":4},{"attributes":{"NORMAL":84,"POSITION":40},"indices":128,"material":0,"mode":4},{"attributes":{"NORMAL":85,"POSITION":41},"indices":129,"material":0,"mode":4},{"attributes":{"NORMAL":86,"POSITION":42},"indices":130,"material":0,"mode":4},{"attributes":{"NORMAL":87,"POSITION":43},"indices":131,"material":0,"mode":4}]}],"nodes":[{"children":[1,2],"name":"Unnamed"},{"mesh":0,"name":"runkoObj"},{"mesh":1,"name":"oviObj"}],"scene":0,"scenes":[{"nodes":[0]}]}