{"accessors":[{"bufferView":0,"byteOffset":0,"componentType":5126,"count":4,"max":[0.25,0.02,0.0],"min":[0.25,0.0,-1.425],"type":"VEC3"},{"bufferView":0,"byteOffset":48,"componentType":5126,"count":33,"max":[0.25,0.02,0.0],"min":[0.0,0.02,-1.5],"type":"VEC3"},{"bufferView":0,"byteOffset":444,"componentType":5126,"count":60,"max":[0.25,0.02,-1.425],"min":[0.17500000000000002,0.0,-1.5],"type":"VEC3"},{"bufferView":0,"byteOffset":1164,"componentType":5126,"count":4,"max":[0.25,0.02,0.0],"min":[0.0,0.0,0.0],"type":"VEC3"},{"bufferView":0,"byteOffset":1212,"componentType":5126,"count":33,"max":[0.25,0.0,0.0],"min":[0.0,0.0,-1.5],"type":"VEC3"},{"bufferView":0,"byteOffset":1608,"componentType":5126,"count":4,"max":[0.17500000000000002,0.02,-1.5],"min":[0.0,0.0,-1.5],"type":"VEC3"},{"bufferView":0,"byteOffset":1656,"componentType":5126,"count":4,"max":[0.0,0.02,0.0],"min":[0.0,0.0,-1.5],"type":"VEC3"},{"bufferView":0,"byteOffset":1704,"componentType":5126,"count":4,"max":[0.0,0.02,0.0],"min":[0.0,0.0,-0.02],"type":"VEC3"},{"bufferView":0,"byteOffset":1752,"componentType":5126,"count":4,"max":[0.02,0.02,0.0],"min":[0.02,0.0,-0.02],"type":"VEC3"},{"bufferView":0,"byteOffset":1800,"componentType":5126,"count":4,"max":[0.02,0.02,0.0],"min":[0.0,0.0,0.0],"type":"VEC3"},{"bufferView":0,"byteOffset":1848,"componentType":5126,"count":4,"max":[0.02,0.02,-0.02],"min":[0.0,0.0,-0.02],"type":"VEC3"},{"bufferView":0,"byteOffset":1896,"componentType":5126,"count":4,"max":[0.02,0.0,0.0],"min":[0.0,0.0,-0.02],"type":"VEC3"},{"bufferView":0,"byteOffset":1944,"componentType":5126,"count":4,"max":[0.02,0.02,0.0],"min":[0.0,0.02,-0.02],"type":"VEC3"},{"bufferView":0,"byteOffset":1992,"componentType":5126,"count":4,"max":[0.0,0.02,0.0],"min":[0.0,0.0,-0.02],"type":"VEC3"},{"bufferView":0,"byteOffset":2040,"componentType":5126,"count":4,"max":[0.02,0.02,0.0],"min":[0.02,0.0,-0.02],"type":"VEC3"},{"bufferView":0,"byteOffset":2088,"componentType":5126,"count":4,"max":[0.02,0.02,0.0],"min":[0.0,0.0,0.0],"type":"VEC3"},{"bufferView":0,"byteOffset":2136,"componentType":5126,"count":4,"max":[0.02,0.02,-0.02],"min":[0.0,0.0,-0.02],"type":"VEC3"},{"bufferView":0,"byteOffset":2184,"componentType":5126,"count":4,"max":[0.02,0.0,0.0],"min":[0.0,0.0,-0.02],"type":"VEC3"},{"bufferView":0,"byteOffset":2232,"componentType":5126,"count":4,"max":[0.02,0.02,0.0],"min":[0.0,0.02,-0.02],"type":"VEC3"},{"bufferView":0,"byteOffset":2280,"componentType":5126,"count":4,"max":[0.0,0.02,0.0],"min":[0.0,0.0,-0.02],"type":"VEC3"},{"bufferView":0,"byteOffset":2328,"componentType":5126,"count":4,"max":[0.02,0.02,0.0],"min":[0.02,0.0,-0.02],"type":"VEC3"},{"bufferView":0,"byteOffset":2376,"componentType":5126,"count":4,"max":[0.02,0.02,0.0],"min":[0.0,0.0,0.0],"type":"VEC3"},{"bufferView":0,"byteOffset":2424,"componentType":5126,"count":4,"max":[0.02,0.02,-0.02],"min":[0.0,0.0,-0.02],"type":"VEC3"},{"bufferView":0,"byteOffset":2472,"componentType":5126,"count":4,"max":[0.02,0.0,0.0],"min":[0.0,0.0,-0.02],"type":"VEC3"},{"bufferView":0,"byteOffset":2520,"componentType":5126,"count":4,"max":[0.02,0.02,0.0],"min":[0.0,0.02,-0.02],"type":"VEC3"},{"bufferView":0,"byteOffset":2568,"componentType":5126,"count":4,"max":[0.0,0.02,0.0],"min":[0.0,0.0,-0.02],"type":"VEC3"},{"bufferView":0,"byteOffset":2616,"componentType":5126,"count":4,"max":[0.02,0.02,0.0],"min":[0.02,0.0,-0.02],"type":"VEC3"},{"bufferView":0,"byteOffset":2664,"componentType":5126,"count":4,"max":[0.02,0.02,0.0],"min":[0.0,0.0,0.0],"type":"VEC3"},{"bufferView":0,"byteOffset":2712,"componentType":5126,"count":4,"max":[0.02,0.02,-0.02],"min":[0.0,0.0,-0.02],"type":"VEC3"},{"bufferView":0,"byteOffset":2760,"componentType":5126,"count":4,"max":[0.02,0.0,0.0],"min":[0.0,0.0,-0.02],"type":"VEC3"},{"bufferView":0,"byteOffset":2808,"componentType":5126,"count":4,"max":[0.02,0.02,0.0],"min":[0.0,0.02,-0.02],"type":"VEC3"},{"bufferView":0,"byteOffset":2856,"componentType":5126,"count":4,"max":[0.0,0.02,0.0],"min":[0.0,0.0,-0.02],"type":"VEC3"},{"bufferView":0,"byteOffset":2904,"componentType":5126,"count":4,"max":[0.02,0.02,0.0],"min":[0.02,0.0,-0.02],"type":"VEC3"},{"bufferView":0,"byteOffset":2952,"componentType":5126,"count":4,"max":[0.02,0.02,0.0],"min":[0.0,0.0,0.0],"type":"VEC3"},{"bufferView":0,"byteOffset":3000,"componentType":5126,"count":4,"max":[0.02,0.02,-0.02],"min":[0.0,0.0,-0.02],"type":"VEC3"},{"bufferView":0,"byteOffset":3048,"componentType":5126,"count":4,"max":[0.02,0.0,0.0],"min":[0.0,0.0,-0.02],"type":"VEC3"},{"bufferView":0,"byteOffset":3096,"componentType":5126,"count":4,"max":[0.02,0.02,0.0],"min":[0.0,0.02,-0.02],"type":"VEC3"},{"bufferView":0,"byteOffset":3144,"componentType":5126,"count":4,"max":[0.0,0.02,0.0],"min":[0.0,0.0,-0.02],"type":"VEC3"},{"bufferView":0,"byteOffset":3192,"componentType":5126,"count":4,"max":[0.02,0.02,0.0],"min":[0.02,0.0,-0.02],"type":"VEC3"},{"bufferView":0,"byteOffset":3240,"componentType":5126,"count":4,"max":[0.02,0.02,0.0],"min":[0.0,0.0,0.0],"type":"VEC3"},{"bufferView":0,"byteOffset":3288,"componentType":5126,"count":4,"max":[0.02,0.02,-0.02],"min":[0.0,0.0,-0.02],"type":"VEC3"},{"bufferView":0,"byteOffset":3336,"componentType":5126,"count":4,"max":[0.02,0.0,0.0],"min":[0.0,0.0,-0.02],"type":"VEC3"},{"bufferView":0,"byteOffset":3384,"componentType":5126,"count":4,"max":[0.02,0.02,0.0],"min":[0.0,0.02,-0.02],"type":"VEC3"},{"bufferView":0,"byteOffset":3432,"componentType":5126,"count":4,"max":[0.0,0.02,0.0],"min":[0.0,0.0,-0.02],"type":"VEC3"},{"bufferView":0,"byteOffset":3480,"componentType":5126,"count":4,"max":[0.02,0.02,0.0],"min":[0.02,0.0,-0.02],"type":"VEC3"},{"bufferView":0,"byteOffset":3528,"componentType":5126,"count":4,"max":[0.02,0.02,0.0],"min":[0.0,0.0,0.0],"type":"VEC3"},{"bufferView":0,"byteOffset":3576,"componentType":5126,"count":4,"max":[0.02,0.02,-0.02],"min":[0.0,0.0,-0.02],"type":"VEC3"},{"bufferView":0,"byteOffset":3624,"componentType":5126,"count":4,"max":[0.02,0.0,0.0],"min":[0.0,0.0,-0.02],"type":"VEC3"},{"bufferView":0,"byteOffset":3672,"componentType":5126,"count":4,"max":[0.02,0.02,0.0],"min":[0.0,0.02,-0.02],"type":"VEC3"},{"bufferView":0,"byteOffset":3720,"componentType":5126,"count":4,"max":[0.0,0.02,0.0],"min":[0.0,0.0,-0.02],"type":"VEC3"},{"bufferView":0,"byteOffset":3768,"componentType":5126,"count":4,"max":[0.02,0.02,0.0],"min":[0.02,0.0,-0.02],"type":"VEC3"},{"bufferView":0,"byteOffset":3816,"componentType":5126,"count":4,"max":[0.02,0.02,0.0],"min":[0.0,0.0,0.0],"type":"VEC3"},{"bufferView":0,"byteOffset":3864,"componentType":5126,"count":4,"max":[0.02,0.02,-0.02],"min":[0.0,0.0,-0.02],"type":"VEC3"},{"bufferView":0,"byteOffset":3912,"componentType":5126,"count":4,"max":[0.02,0.0,0.0],"min":[0.0,0.0,-0.02],"type":"VEC3"},{"bufferView":0,"byteOffset":3960,"componentType":5126,"count":4,"max":[0.02,0.02,0.0],"min":[0.0,0.02,-0.02],"type":"VEC3"},{"bufferView":1,"byteOffset":0,"componentType":5126,"count":4,"type":"VEC3"},{"bufferView":1,"byteOffset":48,"componentType":5126,"count":33,"type":"VEC3"},{"bufferView":1,"byteOffset":444,"componentType":5126,"count":60,"type":"VEC3"},{"bufferView":1,"byteOffset":1164,"componentType":5126,"count":4,"type":"VEC3"},{"bufferView":1,"byteOffset":1212,"componentType":5126,"count":33,"type":"VEC3"},{"bufferView":1,"byteOffset":1608,"componentType":5126,"count":4,"type":"VEC3"},{"bufferView":1,"byteOffset":1656,"componentType":5126,"count":4,"type":"VEC3"},{"bufferView":1,"byteOffset":1704,"componentType":5126,"count":4,"type":"VEC3"},{"bufferView":1,"byteOffset":1752,"componentType":5126,"count":4,"type":"VEC3"},{"bufferView":1,"byteOffset":1800,"componentType":5126,"count":4,"type":"VEC3"},{"bufferView":1,"byteOffset":1848,"componentType":5126,"count":4,"type":"VEC3"},{"bufferView":1,"byteOffset":1896,"componentType":5126,"count":4,"type":"VEC3"},{"bufferView":1,"byteOffset":1944,"componentType":5126,"count":4,"type":"VEC3"},{"bufferView":1,"byteOffset":1992,"componentType":5126,"count":4,"type":"VEC3"},{"bufferView":1,"byteOffset":2040,"componentType":5126,"count":4,"type":"VEC3"},{"bufferView":1,"byteOffset":2088,"componentType":5126,"count":4,"type":"VEC3"},{"bufferView":1,"byteOffset":2136,"componentType":5126,"count":4,"type":"VEC3"},{"bufferView":1,"byteOffset":2184,"componentType":5126,"count":4,"type":"VEC3"},{"bufferView":1,"byteOffset":2232,"componentType":5126,"count":4,"type":"VEC3"},{"bufferView":1,"byteOffset":2280,"componentType":5126,"count":4,"type":"VEC3"},{"bufferView":1,"byteOffset":2328,"componentType":5126,"count":4,"type":"VEC3"},{"bufferView":1,"byteOffset":2376,"componentType":5126,"count":4,"type":"VEC3"},{"bufferView":1,"byteOffset":2424,"componentType":5126,"count":4,"type":"VEC3"},{"bufferView":1,"byteOffset":2472,"componentType":5126,"count":4,"type":"VEC3"},{"bufferView":1,"byteOffset":2520,"componentType":5126,"count":4,"type":"VEC3"},{"bufferView":1,"byteOffset":2568,"componentType":5126,"count":4,"type":"VEC3"},{"bufferView":1,"byteOffset":2616,"componentType":5126,"count":4,"type":"VEC3"},{"bufferView":1,"byteOffset":2664,"componentType":5126,"count":4,"type":"VEC3"},{"bufferView":1,"byteOffset":2712,"componentType":5126,"count":4,"type":"VEC3"},{"bufferView":1,"byteOffset":2760,"componentType":5126,"count":4,"type":"VEC3"},{"bufferView":1,"byteOffset":2808,"componentType":5126,"count":4,"type":"VEC3"},{"bufferView":1,"byteOffset":2856,"componentType":5126,"count":4,"type":"VEC3"},{"bufferView":1,"byteOffset":2904,"componentType":5126,"count":4,"type":"VEC3"},{"bufferView":1,"byteOffset":2952,"componentType":5126,"count":4,"type":"VEC3"},{"bufferView":1,"byteOffset":3000,"componentType":5126,"count":4,"type":"VEC3"},{"bufferView":1,"byteOffset":3048,"componentType":5126,"count":4,"type":"VEC3"},{"bufferView":1,"byteOffset":3096,"componentType":5126,"count":4,"type":"VEC3"},{"bufferView":1,"byteOffset":3144,"componentType":5126,"count":4,"type":"VEC3"},{"bufferView":1,"byteOffset":3192,"componentType":5126,"count":4,"type":"VEC3"},{"bufferView":1,"byteOffset":3240,"componentType":5126,"count":4,"type":"VEC3"},{"bufferView":1,"byteOffset":3288,"componentType":5126,"count":4,"type":"VEC3"},{"bufferView":1,"byteOffset":3336,"componentType":5126,"count":4,"type":"VEC3"},{"bufferView":1,"byteOffset":3384,"componentType":5126,"count":4,"type":"VEC3"},{"bufferView":1,"byteOffset":3432,"componentType":5126,"count":4,"type":"VEC3"},{"bufferView":1,"byteOffset":3480,"componentType":5126,"count":4,"type":"VEC3"},{"bufferView":1,"byteOffset":3528,"componentType":5126,"count":4,"type":"VEC3"},{"bufferView":1,"byteOffset":3576,"componentType":5126,"count":4,"type":"VEC3"},{"bufferView":1,"byteOffset":3624,"componentType":5126,"count":4,"type":"VEC3"},{"bufferView":1,"byteOffset":3672,"componentType":5126,"count":4,"type":"VEC3"},{"bufferView":1,"byteOffset":3720,"componentType":5126,"count":4,"type":"VEC3"},{"bufferView":1,"byteOffset":3768,"componentType":5126,"count":4,"type":"VEC3"},{"bufferView":1,"byteOffset":3816,"componentType":5126,"count":4,"type":"VEC3"},{"bufferView":1,"byteOffset":3864,"componentType":5126,"count":4,"type":"VEC3"},{"bufferView":1,"byteOffset":3912,"componentType":5126,"count":4,"type":"VEC3"},{"bufferView":1,"byteOffset":3960,"componentType":5126,"count":4,"type":"VEC3"},{"bufferView":2,"byteOffset":0,"componentType":5123,"count":6,"type":"SCALAR"},{"bufferView":2,"byteOffset":12,"componentType":5123,"count":93,"type":"SCALAR"},{"bufferView":2,"byteOffset":200,"componentType":5123,"count":174,"type":"SCALAR"},{"bufferView":2,"byteOffset":548,"componentType":5123,"count":6,"type":"SCALAR"},{"bufferView":2,"byteOffset":560,"componentType":5123,"count":93,"type":"SCALAR"},{"bufferView":2,"byteOffset":748,"componentType":5123,"count":6,"type":"SCALAR"},{"bufferView":2,"byteOffset":760,"componentType":5123,"count":6,"type":"SCALAR"},{"bufferView":2,"byteOffset":772,"componentType":5123,"count":6,"type":"SCALAR"},{"bufferView":2,"byteOffset":784,"componentType":5123,"count":6,"type":"SCALAR"},{"bufferView":2,"byteOffset":796,"componentType":5123,"count":6,"type":"SCALAR"},{"bufferView":2,"byteOffset":808,"componentType":5123,"count":6,"type":"SCALAR"},{"bufferView":2,"byteOffset":820,"componentType":5123,"count":6,"type":"SCALAR"},{"bufferView":2,"byteOffset":832,"componentType":5123,"count":6,"type":"SCALAR"},{"bufferView":2,"byteOffset":844,"componentType":5123,"count":6,"type":"SCALAR"},{"bufferView":2,"byteOffset":856,"componentType":5123,"count":6,"type":"SCALAR"},{"bufferView":2,"byteOffset":868,"componentType":5123,"count":6,"type":"SCALAR"},{"bufferView":2,"byteOffset":880,"componentType":5123,"count":6,"type":"SCALAR"},{"bufferView":2,"byteOffset":892,"componentType":5123,"count":6,"type":"SCALAR"},{"bufferView":2,"byteOffset":904,"componentType":5123,"count":6,"type":"SCALAR"},{"bufferView":2,"byteOffset":916,"componentType":5123,"count":6,"type":"SCALAR"},{"bufferView":2,"byteOffset":928,"componentType":5123,"count":6,"type":"SCALAR"},{"bufferView":2,"byteOffset":940,"componentType":5123,"count":6,"type":"SCALAR"},{"bufferView":2,"byteOffset":952,"componentType":5123,"count":6,"type":"SCALAR"},{"bufferView":2,"byteOffset":964,"componentType":5123,"count":6,"type":"SCALAR"},{"bufferView":2,"byteOffset":976,"componentType":5123,"count":6,"type":"SCALAR"},{"bufferView":2,"byteOffset":988,"componentType":5123,"count":6,"type":"SCALAR"},{"bufferView":2,"byteOffset":1000,"componentType":5123,"count":6,"type":"SCALAR"},{"bufferView":2,"byteOffset":1012,"componentType":5123,"count":6,"type":"SCALAR"},{"bufferView":2,"byteOffset":1024,"componentType":5123,"count":6,"type":"SCALAR"},{"bufferView":2,"byteOffset":1036,"componentType":5123,"count":6,"type":"SCALAR"},{"bufferView":2,"byteOffset":1048,"componentType":5123,"count":6,"type":"SCALAR"},{"bufferView":2,"byteOffset":1060,"componentType":5123,"count":6,"type":"SCALAR"},{"bufferView":2,"byteOffset":1072,"componentType":5123,"count":6,"type":"SCALAR"},{"bufferView":2,"byteOffset":1084,"componentType":5123,"count":6,"type":"SCALAR"},{"bufferView":2,"byteOffset":1096,"componentType":5123,"count":6,"type":"SCALAR"},{"bufferView":2,"byteOffset":1108,"componentType":5123,"count":6,"type":"SCALAR"},{"bufferView":2,"byteOffset":1120,"componentType":5123,"count":6,"type":"SCALAR"},{"bufferView":2,"byteOffset":1132,"componentType":5123,"count":6,"type":"SCALAR"},{"bufferView":2,"byteOffset":1144,"componentType":5123,"count":6,"type":"SCALAR"},{"bufferView":2,"byteOffset":1156,"componentType":5123,"count":6,"type":"SCALAR"},{"bufferView":2,"byteOffset":1168,"componentType":5123,"count":6,"type":"SCALAR"},{"bufferView":2,"byteOffset":1180,"componentType":5123,"count":6,"type":"SCALAR"},{"bufferView":2,"byteOffset":1192,"componentType":5123,"count":6,"type":"SCALAR"},{"bufferView":2,"byteOffset":1204,"componentType":5123,"count":6,"type":"SCALAR"},{"bufferView":2,"byteOffset":1216,"componentType":5123,"count":6,"type":"SCALAR"},{"bufferView":2,"byteOffset":1228,"componentType":5123,"count":6,"type":"SCALAR"},{"bufferView":2,"byteOffset":1240,"componentType":5123,"count":6,"type":"SCALAR"},{"bufferView":2,"byteOffset":1252,"componentType":5123,"count":6,"type":"SCALAR"},{"bufferView":2,"byteOffset":1264,"componentType":5123,"count":6,"type":"SCALAR"},{"bufferView":2,"byteOffset":1276,"componentType":5123,"count":6,"type":"SCALAR"},{"bufferView":2,"byteOffset":1288,"componentType":5123,"count":6,"type":"SCALAR"},{"bufferView":2,"byteOffset":1300,"componentType":5123,"count":6,"type":"SCALAR"},{"bufferView":2,"byteOffset":1312,"componentType":5123,"count":6,"type":"SCALAR"},{"bufferView":2,"byteOffset":1324,"componentType":5123,"count":6,"type":"SCALAR"},{"bufferView":2,"byteOffset":1336,"componentType":5123,"count":6,"type":"SCALAR"}],"asset":{"generator":"Open CASCADE Technology 7.8 [dev.opencascade.org]","version":"2.0"},"bufferViews":[{"buffer":0,"byteLength":4008,"byteOffset":0,"byteStride":12,"target":34962},{"buffer":0,"byteLength":4008,"byteOffset":4008,"byteStride":12,"target":34962},{"buffer":0,"byteLength":1348,"byteOffset":8016,"target":34963}],"buffers":[{"byteLength":9364,"uri":"Support_007.bin"}],"materials":[{"name":"mat_0","pbrMetallicRoughness":{"baseColorFactor":[0.41788509488105774,0.4620770215988159,0.5088813304901123,1.0]},"doubleSided":true}],"meshes":[{"name":"Main","primitives":[{"attributes":{"NORMAL":55,"POSITION":0},"indices":110,"material":0,"mode":4},{"attributes":{"NORMAL":56,"POSITION":1},"indices":111,"material":0,"mode":4},{"attributes":{"NORMAL":57,"POSITION":2},"indices":112,"material":0,"mode":4},{"attributes":{"NORMAL":58,"POSITION":3},"indices":113,"material":0,"mode":4},{"attributes":{"NORMAL":59,"POSITION":4},"indices":114,"material":0,"mode":4},{"attributes":{"NORMAL":60,"POSITION":5},"indices":115,"material":0,"mode":4},{"attributes":{"NORMAL":61,"POSITION":6},"indices":116,"material":0,"mode":4}]},{"name":"attach_1","primitives":[{"attributes":{"NORMAL":62,"POSITION":7},"indices":117,"material":0,"mode":4},{"attributes":{"NORMAL":63,"POSITION":8},"indices":118,"material":0,"mode":4},{"attributes":{"NORMAL":64,"POSITION":9},"indices":119,"material":0,"mode":4},{"attributes":{"NORMAL":65,"POSITION":10},"indices":120,"material":0,"mode":4},{"attributes":{"NORMAL":66,"POSITION":11},"indices":121,"material":0,"mode":4},{"attributes":{"NORMAL":67,"POSITION":12},"indices":122,"material":0,"mode":4}]},{"name":"attach_2","primitives":[{"attributes":{"NORMAL":68,"POSITION":13},"indices":123,"material":0,"mode":4},{"attributes":{"NORMAL":69,"POSITION":14},"indices":124,"material":0,"mode":4},{"attributes":{"NORMAL":70,"POSITION":15},"indices":125,"material":0,"mode":4},{"attributes":{"NORMAL":71,"POSITION":16},"indices":126,"material":0,"mode":4},{"attributes":{"NORMAL":72,"POSITION":17},"indices":127,"material":0,"mode":4},{"attributes":{"NORMAL":73,"POSITION":18},"indices":128,"material":0,"mode":4}]},{"name":"attach_3","primitives":[{"attributes":{"NORMAL":74,"POSITION":19},"indices":129,"material":0,"mode":4},{"attributes":{"NORMAL":75,"POSITION":20},"indices":130,"material":0,"mode":4},{"attributes":{"NORMAL":76,"POSITION":21},"indices":131,"material":0,"mode":4},{"attributes":{"NORMAL":77,"POSITION":22},"indices":132,"material":0,"mode":4},{"attributes":{"NORMAL":78,"POSITION":23},"indices":133,"material":0,"mode":4},{"attributes":{"NORMAL":79,"POSITION":24},"indices":134,"material":0,"mode":4}]},{"name":"attach_4","primitives":[{"attributes":{"NORMAL":80,"POSITION":25},"indices":135,"material":0,"mode":4},{"attributes":{"NORMAL":81,"POSITION":26},"indices":136,"material":0,"mode":4},{"attributes":{"NORMAL":82,"POSITION":27},"indices":137,"material":0,"mode":4},{"attributes":{"NORMAL":83,"POSITION":28},"indices":138,"material":0,"mode":4},{"attributes":{"NORMAL":84,"POSITION":29},"indices":139,"material":0,"mode":4},{"attributes":{"NORMAL":85,"POSITION":30},"indices":140,"material":0,"mode":4}]},{"name":"attach_5","primitives":[{"attributes":{"NORMAL":86,"POSITION":31},"indices":141,"material":0,"mode":4},{"attributes":{"NORMAL":87,"POSITION":32},"indices":142,"material":0,"mode":4},{"attributes":{"NORMAL":88,"POSITION":33},"indices":143,"material":0,"mode":4},{"attributes":{"NORMAL":89,"POSITION":34},"indices":144,"material":0,"mode":4},{"attributes":{"NORMAL":90,"POSITION":35},"indices":145,"material":0,"mode":4},{"attributes":{"NORMAL":91,"POSITION":36},"indices":146,"material":0,"mode":4}]},{"name":"attach_6","primitives":[{"attributes":{"NORMAL":92,"POSITION":37},"indices":147,"material":0,"mode":4},{"attributes":{"NORMAL":93,"POSITION":38},"indices":148,"material":0,"mode":4},{"attributes":{"NORMAL":94,"POSITION":39},"indices":149,"material":0,"mode":4},{"attributes":{"NORMAL":95,"POSITION":40},"indices":150,"material":0,"mode":4},{"attributes":{"NORMAL":96,"POSITION":41},"indices":151,"material":0,"mode":4},{"attributes":{"NORMAL":97,"POSITION":42},"indices":152,"material":0,"mode":4}]},{"name":"attach_7","primitives":[{"attributes":{"NORMAL":98,"POSITION":43},"indices":153,"material":0,"mode":4},{"attributes":{"NORMAL":99,"POSITION":44},"indices":154,"material":0,"mode":4},{"attributes":{"NORMAL":100,"POSITION":45},"indices":155,"material":0,"mode":4},{"attributes":{"NORMAL":101,"POSITION":46},"indices":156,"material":0,"mode":4},{"attributes":{"NORMAL":102,"POSITION":47},"indices":157,"material":0,"mode":4},{"attributes":{"NORMAL":103,"POSITION":48},"indices":158,"material":0,"mode":4}]},{"name":"attach_8","primitives":[{"attributes":{"NORMAL":104,"POSITION":49},"indices":159,"material":0,"mode":4},{"attributes":{"NORMAL":105,"POSITION":50},"indices":160,"material":0,"mode":4},{"attributes":{"NORMAL":106,"POSITION":51},"indices":161,"material":0,"mode":4},{"attributes":{"NORMAL":107,"POSITION":52},"indices":162,"material":0,"mode":4},{"attributes":{"NORMAL":108,"POSITION":53},"indices":163,"material":0,"mode":4},{"attributes":{"NORMAL":109,"POSITION":54},"indices":164,"material":0,"mode":4}]}],"nodes":[{"children":[1,2,3,4,5,6,7,8,9],"name":"Support_002"},{"rotation":[0.5,-0.5,0.5,0.5],"translation":[0.0,0.0,-0.25],"mesh":0,"name":"Main"},{"translation":[-0.02,0.0,0.0],"mesh":1,"name":"attach_1"},{"translation":[-0.02,0.2,0.0],"mesh":2,"name":"attach_2"},{"translation":[-0.02,0.4,0.0],"mesh":3,"name":"attach_3"},{"translation":[-0.02,0.6,0.0],"mesh":4,"name":"attach_4"},{"translation":[-0.02,0.8,0.0],"mesh":5,"name":"attach_5"},{"translation":[-0.02,1.0,0.0],"mesh":6,"name":"attach_6"},{"translation":[-0.02,1.2,0.0],"mesh":7,"name":"attach_7"},{"translation":[-0.02,1.4000000000000001,0.0],"mesh":8,"name":"attach_8"}],"scene":0,"scenes":[{"nodes":[0]}]}