{"accessors":[{"bufferView":0,"byteOffset":0,"componentType":5126,"count":4,"max":[0.25,0.02,0.0],"min":[0.25,0.0,-1.675],"type":"VEC3"},{"bufferView":0,"byteOffset":48,"componentType":5126,"count":33,"max":[0.25,0.02,0.0],"min":[0.0,0.02,-1.75],"type":"VEC3"},{"bufferView":0,"byteOffset":444,"componentType":5126,"count":60,"max":[0.25,0.02,-1.675],"min":[0.17500000000000002,0.0,-1.75],"type":"VEC3"},{"bufferView":0,"byteOffset":1164,"componentType":5126,"count":4,"max":[0.25,0.02,0.0],"min":[0.0,0.0,0.0],"type":"VEC3"},{"bufferView":0,"byteOffset":1212,"componentType":5126,"count":33,"max":[0.25,0.0,0.0],"min":[0.0,0.0,-1.75],"type":"VEC3"},{"bufferView":0,"byteOffset":1608,"componentType":5126,"count":4,"max":[0.17500000000000002,0.02,-1.75],"min":[0.0,0.0,-1.75],"type":"VEC3"},{"bufferView":0,"byteOffset":1656,"componentType":5126,"count":4,"max":[0.0,0.02,0.0],"min":[0.0,0.0,-1.75],"type":"VEC3"},{"bufferView":0,"byteOffset":1704,"componentType":5126,"count":4,"max":[0.0,0.02,0.0],"min":[0.0,0.0,-0.02],"type":"VEC3"},{"bufferView":0,"byteOffset":1752,"componentType":5126,"count":4,"max":[0.02,0.02,0.0],"min":[0.02,0.0,-0.02],"type":"VEC3"},{"bufferView":0,"byteOffset":1800,"componentType":5126,"count":4,"max":[0.02,0.02,0.0],"min":[0.0,0.0,0.0],"type":"VEC3"},{"bufferView":0,"byteOffset":1848,"componentType":5126,"count":4,"max":[0.02,0.02,-0.02],"min":[0.0,0.0,-0.02],"type":"VEC3"},{"bufferView":0,"byteOffset":1896,"componentType":5126,"count":4,"max":[0.02,0.0,0.0],"min":[0.0,0.0,-0.02],"type":"VEC3"},{"bufferView":0,"byteOffset":1944,"componentType":5126,"count":4,"max":[0.02,0.02,0.0],"min":[0.0,0.02,-0.02],"type":"VEC3"},{"bufferView":0,"byteOffset":1992,"componentType":5126,"count":4,"max":[0.0,0.02,0.0],"min":[0.0,0.0,-0.02],"type":"VEC3"},{"bufferView":0,"byteOffset":2040,"componentType":5126,"count":4,"max":[0.02,0.02,0.0],"min":[0.02,0.0,-0.02],"type":"VEC3"},{"bufferView":0,"byteOffset":2088,"componentType":5126,"count":4,"max":[0.02,0.02,0.0],"min":[0.0,0.0,0.0],"type":"VEC3"},{"bufferView":0,"byteOffset":2136,"componentType":5126,"count":4,"max":[0.02,0.02,-0.02],"min":[0.0,0.0,-0.02],"type":"VEC3"},{"bufferView":0,"byteOffset":2184,"componentType":5126,"count":4,"max":[0.02,0.0,0.0],"min":[0.0,0.0,-0.02],"type":"VEC3"},{"bufferView":0,"byteOffset":2232,"componentType":5126,"count":4,"max":[0.02,0.02,0.0],"min":[0.0,0.02,-0.02],"type":"VEC3"},{"bufferView":0,"byteOffset":2280,"componentType":5126,"count":4,"max":[0.0,0.02,0.0],"min":[0.0,0.0,-0.02],"type":"VEC3"},{"bufferView":0,"byteOffset":2328,"componentType":5126,"count":4,"max":[0.02,0.02,0.0],"min":[0.02,0.0,-0.02],"type":"VEC3"},{"bufferView":0,"byteOffset":2376,"componentType":5126,"count":4,"max":[0.02,0.02,0.0],"min":[0.0,0.0,0.0],"type":"VEC3"},{"bufferView":0,"byteOffset":2424,"componentType":5126,"count":4,"max":[0.02,0.02,-0.02],"min":[0.0,0.0,-0.02],"type":"VEC3"},{"bufferView":0,"byteOffset":2472,"componentType":5126,"count":4,"max":[0.02,0.0,0.0],"min":[0.0,0.0,-0.02],"type":"VEC3"},{"bufferView":0,"byteOffset":2520,"componentType":5126,"count":4,"max":[0.02,0.02,0.0],"min":[0.0,0.02,-0.02],"type":"VEC3"},{"bufferView":0,"byteOffset":2568,"componentType":5126,"count":4,"max":[0.0,0.02,0.0],"min":[0.0,0.0,-0.02],"type":"VEC3"},{"bufferView":0,"byteOffset":2616,"componentType":5126,"count":4,"max":[0.02,0.02,0.0],"min":[0.02,0.0,-0.02],"type":"VEC3"},{"bufferView":0,"byteOffset":2664,"componentType":5126,"count":4,"max":[0.02,0.02,0.0],"min":[0.0,0.0,0.0],"type":"VEC3"},{"bufferView":0,"byteOffset":2712,"componentType":5126,"count":4,"max":[0.02,0.02,-0.02],"min":[0.0,0.0,-0.02],"type":"VEC3"},{"bufferView":0,"byteOffset":2760,"componentType":5126,"count":4,"max":[0.02,0.0,0.0],"min":[0.0,0.0,-0.02],"type":"VEC3"},{"bufferView":0,"byteOffset":2808,"componentType":5126,"count":4,"max":[0.02,0.02,0.0],"min":[0.0,0.02,-0.02],"type":"VEC3"},{"bufferView":1,"byteOffset":0,"componentType":5126,"count":4,"type":"VEC3"},{"bufferView":1,"byteOffset":48,"componentType":5126,"count":33,"type":"VEC3"},{"bufferView":1,"byteOffset":444,"componentType":5126,"count":60,"type":"VEC3"},{"bufferView":1,"byteOffset":1164,"componentType":5126,"count":4,"type":"VEC3"},{"bufferView":1,"byteOffset":1212,"componentType":5126,"count":33,"type":"VEC3"},{"bufferView":1,"byteOffset":1608,"componentType":5126,"count":4,"type":"VEC3"},{"bufferView":1,"byteOffset":1656,"componentType":5126,"count":4,"type":"VEC3"},{"bufferView":1,"byteOffset":1704,"componentType":5126,"count":4,"type":"VEC3"},{"bufferView":1,"byteOffset":1752,"componentType":5126,"count":4,"type":"VEC3"},{"bufferView":1,"byteOffset":1800,"componentType":5126,"count":4,"type":"VEC3"},{"bufferView":1,"byteOffset":1848,"componentType":5126,"count":4,"type":"VEC3"},{"bufferView":1,"byteOffset":1896,"componentType":5126,"count":4,"type":"VEC3"},{"bufferView":1,"byteOffset":1944,"componentType":5126,"count":4,"type":"VEC3"},{"bufferView":1,"byteOffset":1992,"componentType":5126,"count":4,"type":"VEC3"},{"bufferView":1,"byteOffset":2040,"componentType":5126,"count":4,"type":"VEC3"},{"bufferView":1,"byteOffset":2088,"componentType":5126,"count":4,"type":"VEC3"},{"bufferView":1,"byteOffset":2136,"componentType":5126,"count":4,"type":"VEC3"},{"bufferView":1,"byteOffset":2184,"componentType":5126,"count":4,"type":"VEC3"},{"bufferView":1,"byteOffset":2232,"componentType":5126,"count":4,"type":"VEC3"},{"bufferView":1,"byteOffset":2280,"componentType":5126,"count":4,"type":"VEC3"},{"bufferView":1,"byteOffset":2328,"componentType":5126,"count":4,"type":"VEC3"},{"bufferView":1,"byteOffset":2376,"componentType":5126,"count":4,"type":"VEC3"},{"bufferView":1,"byteOffset":2424,"componentType":5126,"count":4,"type":"VEC3"},{"bufferView":1,"byteOffset":2472,"componentType":5126,"count":4,"type":"VEC3"},{"bufferView":1,"byteOffset":2520,"componentType":5126,"count":4,"type":"VEC3"},{"bufferView":1,"byteOffset":2568,"componentType":5126,"count":4,"type":"VEC3"},{"bufferView":1,"byteOffset":2616,"componentType":5126,"count":4,"type":"VEC3"},{"bufferView":1,"byteOffset":2664,"componentType":5126,"count":4,"type":"VEC3"},{"bufferView":1,"byteOffset":2712,"componentType":5126,"count":4,"type":"VEC3"},{"bufferView":1,"byteOffset":2760,"componentType":5126,"count":4,"type":"VEC3"},{"bufferView":1,"byteOffset":2808,"componentType":5126,"count":4,"type":"VEC3"},{"bufferView":2,"byteOffset":0,"componentType":5123,"count":6,"type":"SCALAR"},{"bufferView":2,"byteOffset":12,"componentType":5123,"count":93,"type":"SCALAR"},{"bufferView":2,"byteOffset":200,"componentType":5123,"count":174,"type":"SCALAR"},{"bufferView":2,"byteOffset":548,"componentType":5123,"count":6,"type":"SCALAR"},{"bufferView":2,"byteOffset":560,"componentType":5123,"count":93,"type":"SCALAR"},{"bufferView":2,"byteOffset":748,"componentType":5123,"count":6,"type":"SCALAR"},{"bufferView":2,"byteOffset":760,"componentType":5123,"count":6,"type":"SCALAR"},{"bufferView":2,"byteOffset":772,"componentType":5123,"count":6,"type":"SCALAR"},{"bufferView":2,"byteOffset":784,"componentType":5123,"count":6,"type":"SCALAR"},{"bufferView":2,"byteOffset":796,"componentType":5123,"count":6,"type":"SCALAR"},{"bufferView":2,"byteOffset":808,"componentType":5123,"count":6,"type":"SCALAR"},{"bufferView":2,"byteOffset":820,"componentType":5123,"count":6,"type":"SCALAR"},{"bufferView":2,"byteOffset":832,"componentType":5123,"count":6,"type":"SCALAR"},{"bufferView":2,"byteOffset":844,"componentType":5123,"count":6,"type":"SCALAR"},{"bufferView":2,"byteOffset":856,"componentType":5123,"count":6,"type":"SCALAR"},{"bufferView":2,"byteOffset":868,"componentType":5123,"count":6,"type":"SCALAR"},{"bufferView":2,"byteOffset":880,"componentType":5123,"count":6,"type":"SCALAR"},{"bufferView":2,"byteOffset":892,"componentType":5123,"count":6,"type":"SCALAR"},{"bufferView":2,"byteOffset":904,"componentType":5123,"count":6,"type":"SCALAR"},{"bufferView":2,"byteOffset":916,"componentType":5123,"count":6,"type":"SCALAR"},{"bufferView":2,"byteOffset":928,"componentType":5123,"count":6,"type":"SCALAR"},{"bufferView":2,"byteOffset":940,"componentType":5123,"count":6,"type":"SCALAR"},{"bufferView":2,"byteOffset":952,"componentType":5123,"count":6,"type":"SCALAR"},{"bufferView":2,"byteOffset":964,"componentType":5123,"count":6,"type":"SCALAR"},{"bufferView":2,"byteOffset":976,"componentType":5123,"count":6,"type":"SCALAR"},{"bufferView":2,"byteOffset":988,"componentType":5123,"count":6,"type":"SCALAR"},{"bufferView":2,"byteOffset":1000,"componentType":5123,"count":6,"type":"SCALAR"},{"bufferView":2,"byteOffset":1012,"componentType":5123,"count":6,"type":"SCALAR"},{"bufferView":2,"byteOffset":1024,"componentType":5123,"count":6,"type":"SCALAR"},{"bufferView":2,"byteOffset":1036,"componentType":5123,"count":6,"type":"SCALAR"},{"bufferView":2,"byteOffset":1048,"componentType":5123,"count":6,"type":"SCALAR"}],"asset":{"generator":"Open CASCADE Technology 7.8 [dev.opencascade.org]","version":"2.0"},"bufferViews":[{"buffer":0,"byteLength":2856,"byteOffset":0,"byteStride":12,"target":34962},{"buffer":0,"byteLength":2856,"byteOffset":2856,"byteStride":12,"target":34962},{"buffer":0,"byteLength":1060,"byteOffset":5712,"target":34963}],"buffers":[{"byteLength":6772,"uri":"Support_002.bin"}],"materials":[{"name":"mat_0","pbrMetallicRoughness":{"baseColorFactor":[0.41788509488105774,0.4620770215988159,0.5088813304901123,1.0]},"doubleSided":true}],"meshes":[{"name":"Main","primitives":[{"attributes":{"NORMAL":31,"POSITION":0},"indices":62,"material":0,"mode":4},{"attributes":{"NORMAL":32,"POSITION":1},"indices":63,"material":0,"mode":4},{"attributes":{"NORMAL":33,"POSITION":2},"indices":64,"material":0,"mode":4},{"attributes":{"NORMAL":34,"POSITION":3},"indices":65,"material":0,"mode":4},{"attributes":{"NORMAL":35,"POSITION":4},"indices":66,"material":0,"mode":4},{"attributes":{"NORMAL":36,"POSITION":5},"indices":67,"material":0,"mode":4},{"attributes":{"NORMAL":37,"POSITION":6},"indices":68,"material":0,"mode":4}]},{"name":"attach_1","primitives":[{"attributes":{"NORMAL":38,"POSITION":7},"indices":69,"material":0,"mode":4},{"attributes":{"NORMAL":39,"POSITION":8},"indices":70,"material":0,"mode":4},{"attributes":{"NORMAL":40,"POSITION":9},"indices":71,"material":0,"mode":4},{"attributes":{"NORMAL":41,"POSITION":10},"indices":72,"material":0,"mode":4},{"attributes":{"NORMAL":42,"POSITION":11},"indices":73,"material":0,"mode":4},{"attributes":{"NORMAL":43,"POSITION":12},"indices":74,"material":0,"mode":4}]},{"name":"attach_2","primitives":[{"attributes":{"NORMAL":44,"POSITION":13},"indices":75,"material":0,"mode":4},{"attributes":{"NORMAL":45,"POSITION":14},"indices":76,"material":0,"mode":4},{"attributes":{"NORMAL":46,"POSITION":15},"indices":77,"material":0,"mode":4},{"attributes":{"NORMAL":47,"POSITION":16},"indices":78,"material":0,"mode":4},{"attributes":{"NORMAL":48,"POSITION":17},"indices":79,"material":0,"mode":4},{"attributes":{"NORMAL":49,"POSITION":18},"indices":80,"material":0,"mode":4}]},{"name":"attach_3","primitives":[{"attributes":{"NORMAL":50,"POSITION":19},"indices":81,"material":0,"mode":4},{"attributes":{"NORMAL":51,"POSITION":20},"indices":82,"material":0,"mode":4},{"attributes":{"NORMAL":52,"POSITION":21},"indices":83,"material":0,"mode":4},{"attributes":{"NORMAL":53,"POSITION":22},"indices":84,"material":0,"mode":4},{"attributes":{"NORMAL":54,"POSITION":23},"indices":85,"material":0,"mode":4},{"attributes":{"NORMAL":55,"POSITION":24},"indices":86,"material":0,"mode":4}]},{"name":"attach_4","primitives":[{"attributes":{"NORMAL":56,"POSITION":25},"indices":87,"material":0,"mode":4},{"attributes":{"NORMAL":57,"POSITION":26},"indices":88,"material":0,"mode":4},{"attributes":{"NORMAL":58,"POSITION":27},"indices":89,"material":0,"mode":4},{"attributes":{"NORMAL":59,"POSITION":28},"indices":90,"material":0,"mode":4},{"attributes":{"NORMAL":60,"POSITION":29},"indices":91,"material":0,"mode":4},{"attributes":{"NORMAL":61,"POSITION":30},"indices":92,"material":0,"mode":4}]}],"nodes":[{"children":[1,2,3,4,5],"name":"Support_002"},{"rotation":[0.5,-0.5,0.5,0.5],"translation":[0.0,0.0,-0.25],"mesh":0,"name":"Main"},{"translation":[-0.02,0.4,0.0],"mesh":1,"name":"attach_1"},{"translation":[-0.02,0.8,0.0],"mesh":2,"name":"attach_2"},{"translation":[-0.02,1.2,0.0],"mesh":3,"name":"attach_3"},{"translation":[-0.02,1.6,0.0],"mesh":4,"name":"attach_4"}],"scene":0,"scenes":[{"nodes":[0]}]}