{"accessors":[{"bufferView":0,"byteOffset":0,"componentType":5126,"count":4,"max":[0.0,0.02,0.0],"min":[0.0,0.0,-0.02],"type":"VEC3"},{"bufferView":0,"byteOffset":48,"componentType":5126,"count":4,"max":[0.02,0.02,0.0],"min":[0.02,0.0,-0.02],"type":"VEC3"},{"bufferView":0,"byteOffset":96,"componentType":5126,"count":4,"max":[0.02,0.02,0.0],"min":[0.0,0.0,0.0],"type":"VEC3"},{"bufferView":0,"byteOffset":144,"componentType":5126,"count":4,"max":[0.02,0.02,-0.02],"min":[0.0,0.0,-0.02],"type":"VEC3"},{"bufferView":0,"byteOffset":192,"componentType":5126,"count":4,"max":[0.02,0.0,0.0],"min":[0.0,0.0,-0.02],"type":"VEC3"},{"bufferView":0,"byteOffset":240,"componentType":5126,"count":4,"max":[0.02,0.02,0.0],"min":[0.0,0.02,-0.02],"type":"VEC3"},{"bufferView":0,"byteOffset":288,"componentType":5126,"count":4,"max":[0.25,0.02,0.0],"min":[0.25,0.0,-0.925],"type":"VEC3"},{"bufferView":0,"byteOffset":336,"componentType":5126,"count":33,"max":[0.25,0.02,0.0],"min":[0.0,0.02,-1.0],"type":"VEC3"},{"bufferView":0,"byteOffset":732,"componentType":5126,"count":60,"max":[0.25,0.02,-0.925],"min":[0.17500000000000002,0.0,-1.0],"type":"VEC3"},{"bufferView":0,"byteOffset":1452,"componentType":5126,"count":4,"max":[0.25,0.02,0.0],"min":[0.0,0.0,0.0],"type":"VEC3"},{"bufferView":0,"byteOffset":1500,"componentType":5126,"count":33,"max":[0.25,0.0,0.0],"min":[0.0,0.0,-1.0],"type":"VEC3"},{"bufferView":0,"byteOffset":1896,"componentType":5126,"count":4,"max":[0.17500000000000002,0.02,-1.0],"min":[0.0,0.0,-1.0],"type":"VEC3"},{"bufferView":0,"byteOffset":1944,"componentType":5126,"count":4,"max":[0.0,0.02,0.0],"min":[0.0,0.0,-1.0],"type":"VEC3"},{"bufferView":0,"byteOffset":1992,"componentType":5126,"count":4,"max":[0.0,0.02,0.0],"min":[0.0,0.0,-0.02],"type":"VEC3"},{"bufferView":0,"byteOffset":2040,"componentType":5126,"count":4,"max":[0.02,0.02,0.0],"min":[0.02,0.0,-0.02],"type":"VEC3"},{"bufferView":0,"byteOffset":2088,"componentType":5126,"count":4,"max":[0.02,0.02,0.0],"min":[0.0,0.0,0.0],"type":"VEC3"},{"bufferView":0,"byteOffset":2136,"componentType":5126,"count":4,"max":[0.02,0.02,-0.02],"min":[0.0,0.0,-0.02],"type":"VEC3"},{"bufferView":0,"byteOffset":2184,"componentType":5126,"count":4,"max":[0.02,0.0,0.0],"min":[0.0,0.0,-0.02],"type":"VEC3"},{"bufferView":0,"byteOffset":2232,"componentType":5126,"count":4,"max":[0.02,0.02,0.0],"min":[0.0,0.02,-0.02],"type":"VEC3"},{"bufferView":0,"byteOffset":2280,"componentType":5126,"count":4,"max":[0.0,0.02,0.0],"min":[0.0,0.0,-0.02],"type":"VEC3"},{"bufferView":0,"byteOffset":2328,"componentType":5126,"count":4,"max":[0.02,0.02,0.0],"min":[0.02,0.0,-0.02],"type":"VEC3"},{"bufferView":0,"byteOffset":2376,"componentType":5126,"count":4,"max":[0.02,0.02,0.0],"min":[0.0,0.0,0.0],"type":"VEC3"},{"bufferView":0,"byteOffset":2424,"componentType":5126,"count":4,"max":[0.02,0.02,-0.02],"min":[0.0,0.0,-0.02],"type":"VEC3"},{"bufferView":0,"byteOffset":2472,"componentType":5126,"count":4,"max":[0.02,0.0,0.0],"min":[0.0,0.0,-0.02],"type":"VEC3"},{"bufferView":0,"byteOffset":2520,"componentType":5126,"count":4,"max":[0.02,0.02,0.0],"min":[0.0,0.02,-0.02],"type":"VEC3"},{"bufferView":0,"byteOffset":2568,"componentType":5126,"count":4,"max":[0.0,0.02,0.0],"min":[0.0,0.0,-0.02],"type":"VEC3"},{"bufferView":0,"byteOffset":2616,"componentType":5126,"count":4,"max":[0.02,0.02,0.0],"min":[0.02,0.0,-0.02],"type":"VEC3"},{"bufferView":0,"byteOffset":2664,"componentType":5126,"count":4,"max":[0.02,0.02,0.0],"min":[0.0,0.0,0.0],"type":"VEC3"},{"bufferView":0,"byteOffset":2712,"componentType":5126,"count":4,"max":[0.02,0.02,-0.02],"min":[0.0,0.0,-0.02],"type":"VEC3"},{"bufferView":0,"byteOffset":2760,"componentType":5126,"count":4,"max":[0.02,0.0,0.0],"min":[0.0,0.0,-0.02],"type":"VEC3"},{"bufferView":0,"byteOffset":2808,"componentType":5126,"count":4,"max":[0.02,0.02,0.0],"min":[0.0,0.02,-0.02],"type":"VEC3"},{"bufferView":0,"byteOffset":2856,"componentType":5126,"count":4,"max":[0.0,0.02,0.0],"min":[0.0,0.0,-0.02],"type":"VEC3"},{"bufferView":0,"byteOffset":2904,"componentType":5126,"count":4,"max":[0.02,0.02,0.0],"min":[0.02,0.0,-0.02],"type":"VEC3"},{"bufferView":0,"byteOffset":2952,"componentType":5126,"count":4,"max":[0.02,0.02,0.0],"min":[0.0,0.0,0.0],"type":"VEC3"},{"bufferView":0,"byteOffset":3000,"componentType":5126,"count":4,"max":[0.02,0.02,-0.02],"min":[0.0,0.0,-0.02],"type":"VEC3"},{"bufferView":0,"byteOffset":3048,"componentType":5126,"count":4,"max":[0.02,0.0,0.0],"min":[0.0,0.0,-0.02],"type":"VEC3"},{"bufferView":0,"byteOffset":3096,"componentType":5126,"count":4,"max":[0.02,0.02,0.0],"min":[0.0,0.02,-0.02],"type":"VEC3"},{"bufferView":1,"byteOffset":0,"componentType":5126,"count":4,"type":"VEC3"},{"bufferView":1,"byteOffset":48,"componentType":5126,"count":4,"type":"VEC3"},{"bufferView":1,"byteOffset":96,"componentType":5126,"count":4,"type":"VEC3"},{"bufferView":1,"byteOffset":144,"componentType":5126,"count":4,"type":"VEC3"},{"bufferView":1,"byteOffset":192,"componentType":5126,"count":4,"type":"VEC3"},{"bufferView":1,"byteOffset":240,"componentType":5126,"count":4,"type":"VEC3"},{"bufferView":1,"byteOffset":288,"componentType":5126,"count":4,"type":"VEC3"},{"bufferView":1,"byteOffset":336,"componentType":5126,"count":33,"type":"VEC3"},{"bufferView":1,"byteOffset":732,"componentType":5126,"count":60,"type":"VEC3"},{"bufferView":1,"byteOffset":1452,"componentType":5126,"count":4,"type":"VEC3"},{"bufferView":1,"byteOffset":1500,"componentType":5126,"count":33,"type":"VEC3"},{"bufferView":1,"byteOffset":1896,"componentType":5126,"count":4,"type":"VEC3"},{"bufferView":1,"byteOffset":1944,"componentType":5126,"count":4,"type":"VEC3"},{"bufferView":1,"byteOffset":1992,"componentType":5126,"count":4,"type":"VEC3"},{"bufferView":1,"byteOffset":2040,"componentType":5126,"count":4,"type":"VEC3"},{"bufferView":1,"byteOffset":2088,"componentType":5126,"count":4,"type":"VEC3"},{"bufferView":1,"byteOffset":2136,"componentType":5126,"count":4,"type":"VEC3"},{"bufferView":1,"byteOffset":2184,"componentType":5126,"count":4,"type":"VEC3"},{"bufferView":1,"byteOffset":2232,"componentType":5126,"count":4,"type":"VEC3"},{"bufferView":1,"byteOffset":2280,"componentType":5126,"count":4,"type":"VEC3"},{"bufferView":1,"byteOffset":2328,"componentType":5126,"count":4,"type":"VEC3"},{"bufferView":1,"byteOffset":2376,"componentType":5126,"count":4,"type":"VEC3"},{"bufferView":1,"byteOffset":2424,"componentType":5126,"count":4,"type":"VEC3"},{"bufferView":1,"byteOffset":2472,"componentType":5126,"count":4,"type":"VEC3"},{"bufferView":1,"byteOffset":2520,"componentType":5126,"count":4,"type":"VEC3"},{"bufferView":1,"byteOffset":2568,"componentType":5126,"count":4,"type":"VEC3"},{"bufferView":1,"byteOffset":2616,"componentType":5126,"count":4,"type":"VEC3"},{"bufferView":1,"byteOffset":2664,"componentType":5126,"count":4,"type":"VEC3"},{"bufferView":1,"byteOffset":2712,"componentType":5126,"count":4,"type":"VEC3"},{"bufferView":1,"byteOffset":2760,"componentType":5126,"count":4,"type":"VEC3"},{"bufferView":1,"byteOffset":2808,"componentType":5126,"count":4,"type":"VEC3"},{"bufferView":1,"byteOffset":2856,"componentType":5126,"count":4,"type":"VEC3"},{"bufferView":1,"byteOffset":2904,"componentType":5126,"count":4,"type":"VEC3"},{"bufferView":1,"byteOffset":2952,"componentType":5126,"count":4,"type":"VEC3"},{"bufferView":1,"byteOffset":3000,"componentType":5126,"count":4,"type":"VEC3"},{"bufferView":1,"byteOffset":3048,"componentType":5126,"count":4,"type":"VEC3"},{"bufferView":1,"byteOffset":3096,"componentType":5126,"count":4,"type":"VEC3"},{"bufferView":2,"byteOffset":0,"componentType":5123,"count":6,"type":"SCALAR"},{"bufferView":2,"byteOffset":12,"componentType":5123,"count":6,"type":"SCALAR"},{"bufferView":2,"byteOffset":24,"componentType":5123,"count":6,"type":"SCALAR"},{"bufferView":2,"byteOffset":36,"componentType":5123,"count":6,"type":"SCALAR"},{"bufferView":2,"byteOffset":48,"componentType":5123,"count":6,"type":"SCALAR"},{"bufferView":2,"byteOffset":60,"componentType":5123,"count":6,"type":"SCALAR"},{"bufferView":2,"byteOffset":72,"componentType":5123,"count":6,"type":"SCALAR"},{"bufferView":2,"byteOffset":84,"componentType":5123,"count":93,"type":"SCALAR"},{"bufferView":2,"byteOffset":272,"componentType":5123,"count":174,"type":"SCALAR"},{"bufferView":2,"byteOffset":620,"componentType":5123,"count":6,"type":"SCALAR"},{"bufferView":2,"byteOffset":632,"componentType":5123,"count":93,"type":"SCALAR"},{"bufferView":2,"byteOffset":820,"componentType":5123,"count":6,"type":"SCALAR"},{"bufferView":2,"byteOffset":832,"componentType":5123,"count":6,"type":"SCALAR"},{"bufferView":2,"byteOffset":844,"componentType":5123,"count":6,"type":"SCALAR"},{"bufferView":2,"byteOffset":856,"componentType":5123,"count":6,"type":"SCALAR"},{"bufferView":2,"byteOffset":868,"componentType":5123,"count":6,"type":"SCALAR"},{"bufferView":2,"byteOffset":880,"componentType":5123,"count":6,"type":"SCALAR"},{"bufferView":2,"byteOffset":892,"componentType":5123,"count":6,"type":"SCALAR"},{"bufferView":2,"byteOffset":904,"componentType":5123,"count":6,"type":"SCALAR"},{"bufferView":2,"byteOffset":916,"componentType":5123,"count":6,"type":"SCALAR"},{"bufferView":2,"byteOffset":928,"componentType":5123,"count":6,"type":"SCALAR"},{"bufferView":2,"byteOffset":940,"componentType":5123,"count":6,"type":"SCALAR"},{"bufferView":2,"byteOffset":952,"componentType":5123,"count":6,"type":"SCALAR"},{"bufferView":2,"byteOffset":964,"componentType":5123,"count":6,"type":"SCALAR"},{"bufferView":2,"byteOffset":976,"componentType":5123,"count":6,"type":"SCALAR"},{"bufferView":2,"byteOffset":988,"componentType":5123,"count":6,"type":"SCALAR"},{"bufferView":2,"byteOffset":1000,"componentType":5123,"count":6,"type":"SCALAR"},{"bufferView":2,"byteOffset":1012,"componentType":5123,"count":6,"type":"SCALAR"},{"bufferView":2,"byteOffset":1024,"componentType":5123,"count":6,"type":"SCALAR"},{"bufferView":2,"byteOffset":1036,"componentType":5123,"count":6,"type":"SCALAR"},{"bufferView":2,"byteOffset":1048,"componentType":5123,"count":6,"type":"SCALAR"},{"bufferView":2,"byteOffset":1060,"componentType":5123,"count":6,"type":"SCALAR"},{"bufferView":2,"byteOffset":1072,"componentType":5123,"count":6,"type":"SCALAR"},{"bufferView":2,"byteOffset":1084,"componentType":5123,"count":6,"type":"SCALAR"},{"bufferView":2,"byteOffset":1096,"componentType":5123,"count":6,"type":"SCALAR"},{"bufferView":2,"byteOffset":1108,"componentType":5123,"count":6,"type":"SCALAR"},{"bufferView":2,"byteOffset":1120,"componentType":5123,"count":6,"type":"SCALAR"}],"asset":{"generator":"Open CASCADE Technology 7.8 [dev.opencascade.org]","version":"2.0"},"bufferViews":[{"buffer":0,"byteLength":3144,"byteOffset":0,"byteStride":12,"target":34962},{"buffer":0,"byteLength":3144,"byteOffset":3144,"byteStride":12,"target":34962},{"buffer":0,"byteLength":1132,"byteOffset":6288,"target":34963}],"buffers":[{"byteLength":7420,"uri":"Support_009.bin"}],"materials":[{"name":"mat_0","pbrMetallicRoughness":{"baseColorFactor":[0.4178845286369324,0.4620771110057831,0.508880615234375,1.0]},"doubleSided":true}],"meshes":[{"name":"attach_5","primitives":[{"attributes":{"NORMAL":37,"POSITION":0},"indices":74,"material":0,"mode":4},{"attributes":{"NORMAL":38,"POSITION":1},"indices":75,"material":0,"mode":4},{"attributes":{"NORMAL":39,"POSITION":2},"indices":76,"material":0,"mode":4},{"attributes":{"NORMAL":40,"POSITION":3},"indices":77,"material":0,"mode":4},{"attributes":{"NORMAL":41,"POSITION":4},"indices":78,"material":0,"mode":4},{"attributes":{"NORMAL":42,"POSITION":5},"indices":79,"material":0,"mode":4}]},{"name":"Main","primitives":[{"attributes":{"NORMAL":43,"POSITION":6},"indices":80,"material":0,"mode":4},{"attributes":{"NORMAL":44,"POSITION":7},"indices":81,"material":0,"mode":4},{"attributes":{"NORMAL":45,"POSITION":8},"indices":82,"material":0,"mode":4},{"attributes":{"NORMAL":46,"POSITION":9},"indices":83,"material":0,"mode":4},{"attributes":{"NORMAL":47,"POSITION":10},"indices":84,"material":0,"mode":4},{"attributes":{"NORMAL":48,"POSITION":11},"indices":85,"material":0,"mode":4},{"attributes":{"NORMAL":49,"POSITION":12},"indices":86,"material":0,"mode":4}]},{"name":"attach_1","primitives":[{"attributes":{"NORMAL":50,"POSITION":13},"indices":87,"material":0,"mode":4},{"attributes":{"NORMAL":51,"POSITION":14},"indices":88,"material":0,"mode":4},{"attributes":{"NORMAL":52,"POSITION":15},"indices":89,"material":0,"mode":4},{"attributes":{"NORMAL":53,"POSITION":16},"indices":90,"material":0,"mode":4},{"attributes":{"NORMAL":54,"POSITION":17},"indices":91,"material":0,"mode":4},{"attributes":{"NORMAL":55,"POSITION":18},"indices":92,"material":0,"mode":4}]},{"name":"attach_2","primitives":[{"attributes":{"NORMAL":56,"POSITION":19},"indices":93,"material":0,"mode":4},{"attributes":{"NORMAL":57,"POSITION":20},"indices":94,"material":0,"mode":4},{"attributes":{"NORMAL":58,"POSITION":21},"indices":95,"material":0,"mode":4},{"attributes":{"NORMAL":59,"POSITION":22},"indices":96,"material":0,"mode":4},{"attributes":{"NORMAL":60,"POSITION":23},"indices":97,"material":0,"mode":4},{"attributes":{"NORMAL":61,"POSITION":24},"indices":98,"material":0,"mode":4}]},{"name":"attach_3","primitives":[{"attributes":{"NORMAL":62,"POSITION":25},"indices":99,"material":0,"mode":4},{"attributes":{"NORMAL":63,"POSITION":26},"indices":100,"material":0,"mode":4},{"attributes":{"NORMAL":64,"POSITION":27},"indices":101,"material":0,"mode":4},{"attributes":{"NORMAL":65,"POSITION":28},"indices":102,"material":0,"mode":4},{"attributes":{"NORMAL":66,"POSITION":29},"indices":103,"material":0,"mode":4},{"attributes":{"NORMAL":67,"POSITION":30},"indices":104,"material":0,"mode":4}]},{"name":"attach_4","primitives":[{"attributes":{"NORMAL":68,"POSITION":31},"indices":105,"material":0,"mode":4},{"attributes":{"NORMAL":69,"POSITION":32},"indices":106,"material":0,"mode":4},{"attributes":{"NORMAL":70,"POSITION":33},"indices":107,"material":0,"mode":4},{"attributes":{"NORMAL":71,"POSITION":34},"indices":108,"material":0,"mode":4},{"attributes":{"NORMAL":72,"POSITION":35},"indices":109,"material":0,"mode":4},{"attributes":{"NORMAL":73,"POSITION":36},"indices":110,"material":0,"mode":4}]}],"nodes":[{"children":[1,2,3,4,5,6],"name":"Support_002"},{"translation":[-0.02,0.8,0.0],"mesh":0,"name":"attach_5"},{"rotation":[0.5,-0.5,0.5,0.5],"translation":[0.0,0.0,-0.25],"mesh":1,"name":"Main"},{"translation":[-0.02,0.0,0.0],"mesh":2,"name":"attach_1"},{"translation":[-0.02,0.2,0.0],"mesh":3,"name":"attach_2"},{"translation":[-0.02,0.4,0.0],"mesh":4,"name":"attach_3"},{"translation":[-0.02,0.6,0.0],"mesh":5,"name":"attach_4"}],"scene":0,"scenes":[{"nodes":[0]}]}