{"accessors":[{"bufferView":0,"byteOffset":0,"componentType":5126,"count":4,"max":[0.0,1.8,0.0],"min":[0.0,0.0,-0.1],"type":"VEC3"},{"bufferView":0,"byteOffset":48,"componentType":5126,"count":4,"max":[0.1,1.8,0.0],"min":[0.0,0.0,0.0],"type":"VEC3"},{"bufferView":0,"byteOffset":96,"componentType":5126,"count":4,"max":[0.1,1.8,0.0],"min":[0.1,0.0,-0.1],"type":"VEC3"},{"bufferView":0,"byteOffset":144,"componentType":5126,"count":4,"max":[0.1,1.8,-0.1],"min":[0.0,0.0,-0.1],"type":"VEC3"},{"bufferView":0,"byteOffset":192,"componentType":5126,"count":4,"max":[0.0,0.02,0.0],"min":[0.0,0.0,-0.02],"type":"VEC3"},{"bufferView":0,"byteOffset":240,"componentType":5126,"count":4,"max":[0.02,0.02,0.0],"min":[0.02,0.0,-0.02],"type":"VEC3"},{"bufferView":0,"byteOffset":288,"componentType":5126,"count":4,"max":[0.02,0.02,0.0],"min":[0.0,0.0,0.0],"type":"VEC3"},{"bufferView":0,"byteOffset":336,"componentType":5126,"count":4,"max":[0.02,0.02,-0.02],"min":[0.0,0.0,-0.02],"type":"VEC3"},{"bufferView":0,"byteOffset":384,"componentType":5126,"count":4,"max":[0.02,0.0,0.0],"min":[0.0,0.0,-0.02],"type":"VEC3"},{"bufferView":0,"byteOffset":432,"componentType":5126,"count":4,"max":[0.02,0.02,0.0],"min":[0.0,0.02,-0.02],"type":"VEC3"},{"bufferView":0,"byteOffset":480,"componentType":5126,"count":4,"max":[0.0,0.02,0.0],"min":[0.0,0.0,-0.02],"type":"VEC3"},{"bufferView":0,"byteOffset":528,"componentType":5126,"count":4,"max":[0.02,0.02,0.0],"min":[0.02,0.0,-0.02],"type":"VEC3"},{"bufferView":0,"byteOffset":576,"componentType":5126,"count":4,"max":[0.02,0.02,0.0],"min":[0.0,0.0,0.0],"type":"VEC3"},{"bufferView":0,"byteOffset":624,"componentType":5126,"count":4,"max":[0.02,0.02,-0.02],"min":[0.0,0.0,-0.02],"type":"VEC3"},{"bufferView":0,"byteOffset":672,"componentType":5126,"count":4,"max":[0.02,0.0,0.0],"min":[0.0,0.0,-0.02],"type":"VEC3"},{"bufferView":0,"byteOffset":720,"componentType":5126,"count":4,"max":[0.02,0.02,0.0],"min":[0.0,0.02,-0.02],"type":"VEC3"},{"bufferView":0,"byteOffset":768,"componentType":5126,"count":4,"max":[0.0,0.02,0.0],"min":[0.0,0.0,-0.02],"type":"VEC3"},{"bufferView":0,"byteOffset":816,"componentType":5126,"count":4,"max":[0.02,0.02,0.0],"min":[0.02,0.0,-0.02],"type":"VEC3"},{"bufferView":0,"byteOffset":864,"componentType":5126,"count":4,"max":[0.02,0.02,0.0],"min":[0.0,0.0,0.0],"type":"VEC3"},{"bufferView":0,"byteOffset":912,"componentType":5126,"count":4,"max":[0.02,0.02,-0.02],"min":[0.0,0.0,-0.02],"type":"VEC3"},{"bufferView":0,"byteOffset":960,"componentType":5126,"count":4,"max":[0.02,0.0,0.0],"min":[0.0,0.0,-0.02],"type":"VEC3"},{"bufferView":0,"byteOffset":1008,"componentType":5126,"count":4,"max":[0.02,0.02,0.0],"min":[0.0,0.02,-0.02],"type":"VEC3"},{"bufferView":1,"byteOffset":0,"componentType":5126,"count":4,"type":"VEC3"},{"bufferView":1,"byteOffset":48,"componentType":5126,"count":4,"type":"VEC3"},{"bufferView":1,"byteOffset":96,"componentType":5126,"count":4,"type":"VEC3"},{"bufferView":1,"byteOffset":144,"componentType":5126,"count":4,"type":"VEC3"},{"bufferView":1,"byteOffset":192,"componentType":5126,"count":4,"type":"VEC3"},{"bufferView":1,"byteOffset":240,"componentType":5126,"count":4,"type":"VEC3"},{"bufferView":1,"byteOffset":288,"componentType":5126,"count":4,"type":"VEC3"},{"bufferView":1,"byteOffset":336,"componentType":5126,"count":4,"type":"VEC3"},{"bufferView":1,"byteOffset":384,"componentType":5126,"count":4,"type":"VEC3"},{"bufferView":1,"byteOffset":432,"componentType":5126,"count":4,"type":"VEC3"},{"bufferView":1,"byteOffset":480,"componentType":5126,"count":4,"type":"VEC3"},{"bufferView":1,"byteOffset":528,"componentType":5126,"count":4,"type":"VEC3"},{"bufferView":1,"byteOffset":576,"componentType":5126,"count":4,"type":"VEC3"},{"bufferView":1,"byteOffset":624,"componentType":5126,"count":4,"type":"VEC3"},{"bufferView":1,"byteOffset":672,"componentType":5126,"count":4,"type":"VEC3"},{"bufferView":1,"byteOffset":720,"componentType":5126,"count":4,"type":"VEC3"},{"bufferView":1,"byteOffset":768,"componentType":5126,"count":4,"type":"VEC3"},{"bufferView":1,"byteOffset":816,"componentType":5126,"count":4,"type":"VEC3"},{"bufferView":1,"byteOffset":864,"componentType":5126,"count":4,"type":"VEC3"},{"bufferView":1,"byteOffset":912,"componentType":5126,"count":4,"type":"VEC3"},{"bufferView":1,"byteOffset":960,"componentType":5126,"count":4,"type":"VEC3"},{"bufferView":1,"byteOffset":1008,"componentType":5126,"count":4,"type":"VEC3"},{"bufferView":2,"byteOffset":0,"componentType":5123,"count":6,"type":"SCALAR"},{"bufferView":2,"byteOffset":12,"componentType":5123,"count":6,"type":"SCALAR"},{"bufferView":2,"byteOffset":24,"componentType":5123,"count":6,"type":"SCALAR"},{"bufferView":2,"byteOffset":36,"componentType":5123,"count":6,"type":"SCALAR"},{"bufferView":2,"byteOffset":48,"componentType":5123,"count":6,"type":"SCALAR"},{"bufferView":2,"byteOffset":60,"componentType":5123,"count":6,"type":"SCALAR"},{"bufferView":2,"byteOffset":72,"componentType":5123,"count":6,"type":"SCALAR"},{"bufferView":2,"byteOffset":84,"componentType":5123,"count":6,"type":"SCALAR"},{"bufferView":2,"byteOffset":96,"componentType":5123,"count":6,"type":"SCALAR"},{"bufferView":2,"byteOffset":108,"componentType":5123,"count":6,"type":"SCALAR"},{"bufferView":2,"byteOffset":120,"componentType":5123,"count":6,"type":"SCALAR"},{"bufferView":2,"byteOffset":132,"componentType":5123,"count":6,"type":"SCALAR"},{"bufferView":2,"byteOffset":144,"componentType":5123,"count":6,"type":"SCALAR"},{"bufferView":2,"byteOffset":156,"componentType":5123,"count":6,"type":"SCALAR"},{"bufferView":2,"byteOffset":168,"componentType":5123,"count":6,"type":"SCALAR"},{"bufferView":2,"byteOffset":180,"componentType":5123,"count":6,"type":"SCALAR"},{"bufferView":2,"byteOffset":192,"componentType":5123,"count":6,"type":"SCALAR"},{"bufferView":2,"byteOffset":204,"componentType":5123,"count":6,"type":"SCALAR"},{"bufferView":2,"byteOffset":216,"componentType":5123,"count":6,"type":"SCALAR"},{"bufferView":2,"byteOffset":228,"componentType":5123,"count":6,"type":"SCALAR"},{"bufferView":2,"byteOffset":240,"componentType":5123,"count":6,"type":"SCALAR"},{"bufferView":2,"byteOffset":252,"componentType":5123,"count":6,"type":"SCALAR"}],"asset":{"generator":"Open CASCADE Technology 7.8 [dev.opencascade.org]","version":"2.0"},"bufferViews":[{"buffer":0,"byteLength":1056,"byteOffset":0,"byteStride":12,"target":34962},{"buffer":0,"byteLength":1056,"byteOffset":1056,"byteStride":12,"target":34962},{"buffer":0,"byteLength":264,"byteOffset":2112,"target":34963}],"buffers":[{"byteLength":2376,"uri":"Support_001.bin"}],"materials":[{"name":"mat_0","pbrMetallicRoughness":{"baseColorFactor":[0.4178845286369324,0.4620771110057831,0.508880615234375,1.0]},"doubleSided":true}],"meshes":[{"name":"Support","primitives":[{"attributes":{"NORMAL":22,"POSITION":0},"indices":44,"material":0,"mode":4},{"attributes":{"NORMAL":23,"POSITION":1},"indices":45,"material":0,"mode":4},{"attributes":{"NORMAL":24,"POSITION":2},"indices":46,"material":0,"mode":4},{"attributes":{"NORMAL":25,"POSITION":3},"indices":47,"material":0,"mode":4}]},{"name":"attach_bottom","primitives":[{"attributes":{"NORMAL":26,"POSITION":4},"indices":48,"material":0,"mode":4},{"attributes":{"NORMAL":27,"POSITION":5},"indices":49,"material":0,"mode":4},{"attributes":{"NORMAL":28,"POSITION":6},"indices":50,"material":0,"mode":4},{"attributes":{"NORMAL":29,"POSITION":7},"indices":51,"material":0,"mode":4},{"attributes":{"NORMAL":30,"POSITION":8},"indices":52,"material":0,"mode":4},{"attributes":{"NORMAL":31,"POSITION":9},"indices":53,"material":0,"mode":4}]},{"name":"attach_middle","primitives":[{"attributes":{"NORMAL":32,"POSITION":10},"indices":54,"material":0,"mode":4},{"attributes":{"NORMAL":33,"POSITION":11},"indices":55,"material":0,"mode":4},{"attributes":{"NORMAL":34,"POSITION":12},"indices":56,"material":0,"mode":4},{"attributes":{"NORMAL":35,"POSITION":13},"indices":57,"material":0,"mode":4},{"attributes":{"NORMAL":36,"POSITION":14},"indices":58,"material":0,"mode":4},{"attributes":{"NORMAL":37,"POSITION":15},"indices":59,"material":0,"mode":4}]},{"name":"attach_top","primitives":[{"attributes":{"NORMAL":38,"POSITION":16},"indices":60,"material":0,"mode":4},{"attributes":{"NORMAL":39,"POSITION":17},"indices":61,"material":0,"mode":4},{"attributes":{"NORMAL":40,"POSITION":18},"indices":62,"material":0,"mode":4},{"attributes":{"NORMAL":41,"POSITION":19},"indices":63,"material":0,"mode":4},{"attributes":{"NORMAL":42,"POSITION":20},"indices":64,"material":0,"mode":4},{"attributes":{"NORMAL":43,"POSITION":21},"indices":65,"material":0,"mode":4}]}],"nodes":[{"children":[1,2,3,4],"name":"Support_001"},{"mesh":0,"name":"Support"},{"translation":[0.04,0.85,0.01],"mesh":1,"name":"attach_bottom"},{"translation":[0.04,1.3,0.01],"mesh":2,"name":"attach_middle"},{"translation":[0.04,1.75,0.01],"mesh":3,"name":"attach_top"}],"scene":0,"scenes":[{"nodes":[0]}]}