{"accessors":[{"bufferView":0,"byteOffset":0,"componentType":5126,"count":4,"max":[0.0,9.999999999887876e-8,0.0],"min":[-8.881784197001253e-19,0.0,-0.25],"type":"VEC3"},{"bufferView":0,"byteOffset":48,"componentType":5126,"count":6,"max":[0.7500000000000001,0.01,0.0],"min":[-8.881784197001253e-19,0.0,0.0],"type":"VEC3"},{"bufferView":0,"byteOffset":120,"componentType":5126,"count":4,"max":[0.0099999,0.01,0.0],"min":[-8.881784197001253e-19,9.999999999887876e-8,-0.25],"type":"VEC3"},{"bufferView":0,"byteOffset":168,"componentType":5126,"count":4,"max":[0.75,0.0,0.0],"min":[0.0,0.0,-0.25],"type":"VEC3"},{"bufferView":0,"byteOffset":216,"componentType":5126,"count":6,"max":[0.7500000000000001,0.01,-0.25],"min":[-8.881784197001253e-19,0.0,-0.25],"type":"VEC3"},{"bufferView":0,"byteOffset":288,"componentType":5126,"count":4,"max":[0.7500000000000001,9.999999993404174e-8,0.0],"min":[0.75,0.0,-0.25],"type":"VEC3"},{"bufferView":0,"byteOffset":336,"componentType":5126,"count":4,"max":[0.7500000000000001,0.009999999999999986,0.0],"min":[0.7400000999999999,9.999999993404174e-8,-0.25],"type":"VEC3"},{"bufferView":0,"byteOffset":384,"componentType":5126,"count":4,"max":[0.7400000999999999,0.01,0.0],"min":[0.0099999,0.009999999999999986,-0.25],"type":"VEC3"},{"bufferView":0,"byteOffset":432,"componentType":5126,"count":4,"max":[1.0000000005838672e-7,-1.110223024625157e-18,-2.3348464750742727e-18],"min":[0.0,-2.9753965957723957e-17,-0.25],"type":"VEC3"},{"bufferView":0,"byteOffset":480,"componentType":5126,"count":6,"max":[0.01,0.22,-1.1102119223949104e-18],"min":[-2.4868995751603507e-17,-1.998390342095036e-18,-2.6759776365525952e-17],"type":"VEC3"},{"bufferView":0,"byteOffset":552,"componentType":5126,"count":4,"max":[0.01000000000000006,0.0099999,-1.1102119223949104e-18],"min":[9.999999999976694e-8,-2.9753965957723957e-17,-0.25],"type":"VEC3"},{"bufferView":0,"byteOffset":600,"componentType":5126,"count":4,"max":[5.861977570020827e-17,0.22,-2.33486982377251e-18],"min":[-2.4868995751603507e-17,-2.886579864025408e-17,-0.25000000000000006],"type":"VEC3"},{"bufferView":0,"byteOffset":648,"componentType":5126,"count":6,"max":[0.01000000000000006,0.21999999999999997,-0.25],"min":[3.375077994860476e-17,-2.9753965957723957e-17,-0.25000000000000006],"type":"VEC3"},{"bufferView":0,"byteOffset":720,"componentType":5126,"count":4,"max":[0.01000000000000006,0.2100001,-1.1102119223949104e-18],"min":[0.00999999999999997,0.009999899999999971,-0.25000000000000006],"type":"VEC3"},{"bufferView":0,"byteOffset":768,"componentType":5126,"count":4,"max":[0.010000000000000045,0.21999999999999997,-2.3314694619358533e-17],"min":[9.999999998200338e-8,0.21000009999999997,-0.25000000000000006],"type":"VEC3"},{"bufferView":0,"byteOffset":816,"componentType":5126,"count":4,"max":[1.0000000005838672e-7,0.22,-2.6759753016827705e-17],"min":[-2.4868995751603507e-17,0.21999999999999997,-0.25000000000000006],"type":"VEC3"},{"bufferView":0,"byteOffset":864,"componentType":5126,"count":4,"max":[0.75,0.22,0.0],"min":[0.75,0.2199999,-0.25],"type":"VEC3"},{"bufferView":0,"byteOffset":912,"componentType":5126,"count":6,"max":[0.75,0.22,0.0],"min":[-1.1368683772161603e-16,0.2099999999999999,0.0],"type":"VEC3"},{"bufferView":0,"byteOffset":984,"componentType":5126,"count":4,"max":[0.75,0.2199999,0.0],"min":[0.7400000999999999,0.21,-0.25],"type":"VEC3"},{"bufferView":0,"byteOffset":1032,"componentType":5126,"count":4,"max":[0.75,0.22,0.0],"min":[0.0,0.21999999999999992,-0.25],"type":"VEC3"},{"bufferView":0,"byteOffset":1080,"componentType":5126,"count":6,"max":[0.75,0.22,-0.25],"min":[-1.1368683772161603e-16,0.2099999999999999,-0.25],"type":"VEC3"},{"bufferView":0,"byteOffset":1152,"componentType":5126,"count":4,"max":[0.0,0.21999999999999992,0.0],"min":[-1.1368683772161603e-16,0.21999989999999997,-0.25],"type":"VEC3"},{"bufferView":0,"byteOffset":1200,"componentType":5126,"count":4,"max":[0.009999900000000025,0.21999989999999997,0.0],"min":[-1.1368683772161603e-16,0.2099999999999999,-0.25],"type":"VEC3"},{"bufferView":0,"byteOffset":1248,"componentType":5126,"count":4,"max":[0.7400000999999999,0.21,0.0],"min":[0.009999900000000025,0.2099999999999999,-0.25],"type":"VEC3"},{"bufferView":0,"byteOffset":1296,"componentType":5126,"count":4,"max":[0.75,0.22000000000000003,-2.3348464750742785e-18],"min":[0.7499998999999999,0.22,-0.25],"type":"VEC3"},{"bufferView":0,"byteOffset":1344,"componentType":5126,"count":6,"max":[0.75,0.22,-1.11021192239491e-18],"min":[0.74,0.0,-2.6759776365525955e-17],"type":"VEC3"},{"bufferView":0,"byteOffset":1416,"componentType":5126,"count":4,"max":[0.7499999,0.22000000000000003,-1.11021192239491e-18],"min":[0.74,0.2100001,-0.25],"type":"VEC3"},{"bufferView":0,"byteOffset":1464,"componentType":5126,"count":4,"max":[0.7500000000000001,0.22000000000000003,-2.33486982377251e-18],"min":[0.7499999999999999,0.0,-0.25000000000000006],"type":"VEC3"},{"bufferView":0,"byteOffset":1512,"componentType":5126,"count":6,"max":[0.7500000000000001,0.22000000000000003,-0.25],"min":[0.7400000000000001,2.842170943040401e-17,-0.25000000000000006],"type":"VEC3"},{"bufferView":0,"byteOffset":1584,"componentType":5126,"count":4,"max":[0.7400000000000001,0.21000010000000002,-1.11021192239491e-18],"min":[0.74,0.009999899999999997,-0.25000000000000006],"type":"VEC3"},{"bufferView":0,"byteOffset":1632,"componentType":5126,"count":4,"max":[0.7499999000000002,0.009999900000000025,-2.3314694619358533e-17],"min":[0.74,2.842170943040401e-17,-0.25000000000000006],"type":"VEC3"},{"bufferView":0,"byteOffset":1680,"componentType":5126,"count":4,"max":[0.7500000000000001,2.842170943040401e-17,-2.675975301682772e-17],"min":[0.7499999,0.0,-0.25000000000000006],"type":"VEC3"},{"bufferView":0,"byteOffset":1728,"componentType":5126,"count":4,"max":[0.0,0.22,-0.249],"min":[0.0,0.0,-0.25000000000000006],"type":"VEC3"},{"bufferView":0,"byteOffset":1776,"componentType":5126,"count":4,"max":[0.75,0.22,-0.249],"min":[0.75,0.0,-0.25000000000000006],"type":"VEC3"},{"bufferView":0,"byteOffset":1824,"componentType":5126,"count":4,"max":[0.75,1.1102230246251566e-19,-0.249],"min":[0.0,0.0,-0.25],"type":"VEC3"},{"bufferView":0,"byteOffset":1872,"componentType":5126,"count":4,"max":[0.75,0.22,-0.24900000000000003],"min":[0.0,0.22,-0.25000000000000006],"type":"VEC3"},{"bufferView":0,"byteOffset":1920,"componentType":5126,"count":4,"max":[0.75,0.22,-0.25],"min":[0.0,0.0,-0.25000000000000006],"type":"VEC3"},{"bufferView":0,"byteOffset":1968,"componentType":5126,"count":4,"max":[0.75,0.22,-0.249],"min":[0.0,1.1102230246251566e-19,-0.24900000000000003],"type":"VEC3"},{"bufferView":0,"byteOffset":2016,"componentType":5126,"count":4,"max":[0.0,0.02,0.0],"min":[0.0,0.0,-0.02],"type":"VEC3"},{"bufferView":0,"byteOffset":2064,"componentType":5126,"count":4,"max":[0.02,0.02,0.0],"min":[0.02,0.0,-0.02],"type":"VEC3"},{"bufferView":0,"byteOffset":2112,"componentType":5126,"count":4,"max":[0.02,0.02,0.0],"min":[0.0,0.0,0.0],"type":"VEC3"},{"bufferView":0,"byteOffset":2160,"componentType":5126,"count":4,"max":[0.02,0.02,-0.02],"min":[0.0,0.0,-0.02],"type":"VEC3"},{"bufferView":0,"byteOffset":2208,"componentType":5126,"count":4,"max":[0.02,0.0,0.0],"min":[0.0,0.0,-0.02],"type":"VEC3"},{"bufferView":0,"byteOffset":2256,"componentType":5126,"count":4,"max":[0.02,0.02,0.0],"min":[0.0,0.02,-0.02],"type":"VEC3"},{"bufferView":0,"byteOffset":2304,"componentType":5126,"count":4,"max":[0.0,0.02,0.0],"min":[0.0,0.0,-0.02],"type":"VEC3"},{"bufferView":0,"byteOffset":2352,"componentType":5126,"count":4,"max":[0.02,0.02,0.0],"min":[0.02,0.0,-0.02],"type":"VEC3"},{"bufferView":0,"byteOffset":2400,"componentType":5126,"count":4,"max":[0.02,0.02,0.0],"min":[0.0,0.0,0.0],"type":"VEC3"},{"bufferView":0,"byteOffset":2448,"componentType":5126,"count":4,"max":[0.02,0.02,-0.02],"min":[0.0,0.0,-0.02],"type":"VEC3"},{"bufferView":0,"byteOffset":2496,"componentType":5126,"count":4,"max":[0.02,0.0,0.0],"min":[0.0,0.0,-0.02],"type":"VEC3"},{"bufferView":0,"byteOffset":2544,"componentType":5126,"count":4,"max":[0.02,0.02,0.0],"min":[0.0,0.02,-0.02],"type":"VEC3"},{"bufferView":1,"byteOffset":0,"componentType":5126,"count":4,"type":"VEC3"},{"bufferView":1,"byteOffset":48,"componentType":5126,"count":6,"type":"VEC3"},{"bufferView":1,"byteOffset":120,"componentType":5126,"count":4,"type":"VEC3"},{"bufferView":1,"byteOffset":168,"componentType":5126,"count":4,"type":"VEC3"},{"bufferView":1,"byteOffset":216,"componentType":5126,"count":6,"type":"VEC3"},{"bufferView":1,"byteOffset":288,"componentType":5126,"count":4,"type":"VEC3"},{"bufferView":1,"byteOffset":336,"componentType":5126,"count":4,"type":"VEC3"},{"bufferView":1,"byteOffset":384,"componentType":5126,"count":4,"type":"VEC3"},{"bufferView":1,"byteOffset":432,"componentType":5126,"count":4,"type":"VEC3"},{"bufferView":1,"byteOffset":480,"componentType":5126,"count":6,"type":"VEC3"},{"bufferView":1,"byteOffset":552,"componentType":5126,"count":4,"type":"VEC3"},{"bufferView":1,"byteOffset":600,"componentType":5126,"count":4,"type":"VEC3"},{"bufferView":1,"byteOffset":648,"componentType":5126,"count":6,"type":"VEC3"},{"bufferView":1,"byteOffset":720,"componentType":5126,"count":4,"type":"VEC3"},{"bufferView":1,"byteOffset":768,"componentType":5126,"count":4,"type":"VEC3"},{"bufferView":1,"byteOffset":816,"componentType":5126,"count":4,"type":"VEC3"},{"bufferView":1,"byteOffset":864,"componentType":5126,"count":4,"type":"VEC3"},{"bufferView":1,"byteOffset":912,"componentType":5126,"count":6,"type":"VEC3"},{"bufferView":1,"byteOffset":984,"componentType":5126,"count":4,"type":"VEC3"},{"bufferView":1,"byteOffset":1032,"componentType":5126,"count":4,"type":"VEC3"},{"bufferView":1,"byteOffset":1080,"componentType":5126,"count":6,"type":"VEC3"},{"bufferView":1,"byteOffset":1152,"componentType":5126,"count":4,"type":"VEC3"},{"bufferView":1,"byteOffset":1200,"componentType":5126,"count":4,"type":"VEC3"},{"bufferView":1,"byteOffset":1248,"componentType":5126,"count":4,"type":"VEC3"},{"bufferView":1,"byteOffset":1296,"componentType":5126,"count":4,"type":"VEC3"},{"bufferView":1,"byteOffset":1344,"componentType":5126,"count":6,"type":"VEC3"},{"bufferView":1,"byteOffset":1416,"componentType":5126,"count":4,"type":"VEC3"},{"bufferView":1,"byteOffset":1464,"componentType":5126,"count":4,"type":"VEC3"},{"bufferView":1,"byteOffset":1512,"componentType":5126,"count":6,"type":"VEC3"},{"bufferView":1,"byteOffset":1584,"componentType":5126,"count":4,"type":"VEC3"},{"bufferView":1,"byteOffset":1632,"componentType":5126,"count":4,"type":"VEC3"},{"bufferView":1,"byteOffset":1680,"componentType":5126,"count":4,"type":"VEC3"},{"bufferView":1,"byteOffset":1728,"componentType":5126,"count":4,"type":"VEC3"},{"bufferView":1,"byteOffset":1776,"componentType":5126,"count":4,"type":"VEC3"},{"bufferView":1,"byteOffset":1824,"componentType":5126,"count":4,"type":"VEC3"},{"bufferView":1,"byteOffset":1872,"componentType":5126,"count":4,"type":"VEC3"},{"bufferView":1,"byteOffset":1920,"componentType":5126,"count":4,"type":"VEC3"},{"bufferView":1,"byteOffset":1968,"componentType":5126,"count":4,"type":"VEC3"},{"bufferView":1,"byteOffset":2016,"componentType":5126,"count":4,"type":"VEC3"},{"bufferView":1,"byteOffset":2064,"componentType":5126,"count":4,"type":"VEC3"},{"bufferView":1,"byteOffset":2112,"componentType":5126,"count":4,"type":"VEC3"},{"bufferView":1,"byteOffset":2160,"componentType":5126,"count":4,"type":"VEC3"},{"bufferView":1,"byteOffset":2208,"componentType":5126,"count":4,"type":"VEC3"},{"bufferView":1,"byteOffset":2256,"componentType":5126,"count":4,"type":"VEC3"},{"bufferView":1,"byteOffset":2304,"componentType":5126,"count":4,"type":"VEC3"},{"bufferView":1,"byteOffset":2352,"componentType":5126,"count":4,"type":"VEC3"},{"bufferView":1,"byteOffset":2400,"componentType":5126,"count":4,"type":"VEC3"},{"bufferView":1,"byteOffset":2448,"componentType":5126,"count":4,"type":"VEC3"},{"bufferView":1,"byteOffset":2496,"componentType":5126,"count":4,"type":"VEC3"},{"bufferView":1,"byteOffset":2544,"componentType":5126,"count":4,"type":"VEC3"},{"bufferView":2,"byteOffset":0,"componentType":5123,"count":6,"type":"SCALAR"},{"bufferView":2,"byteOffset":12,"componentType":5123,"count":12,"type":"SCALAR"},{"bufferView":2,"byteOffset":36,"componentType":5123,"count":6,"type":"SCALAR"},{"bufferView":2,"byteOffset":48,"componentType":5123,"count":6,"type":"SCALAR"},{"bufferView":2,"byteOffset":60,"componentType":5123,"count":12,"type":"SCALAR"},{"bufferView":2,"byteOffset":84,"componentType":5123,"count":6,"type":"SCALAR"},{"bufferView":2,"byteOffset":96,"componentType":5123,"count":6,"type":"SCALAR"},{"bufferView":2,"byteOffset":108,"componentType":5123,"count":6,"type":"SCALAR"},{"bufferView":2,"byteOffset":120,"componentType":5123,"count":6,"type":"SCALAR"},{"bufferView":2,"byteOffset":132,"componentType":5123,"count":12,"type":"SCALAR"},{"bufferView":2,"byteOffset":156,"componentType":5123,"count":6,"type":"SCALAR"},{"bufferView":2,"byteOffset":168,"componentType":5123,"count":6,"type":"SCALAR"},{"bufferView":2,"byteOffset":180,"componentType":5123,"count":12,"type":"SCALAR"},{"bufferView":2,"byteOffset":204,"componentType":5123,"count":6,"type":"SCALAR"},{"bufferView":2,"byteOffset":216,"componentType":5123,"count":6,"type":"SCALAR"},{"bufferView":2,"byteOffset":228,"componentType":5123,"count":6,"type":"SCALAR"},{"bufferView":2,"byteOffset":240,"componentType":5123,"count":6,"type":"SCALAR"},{"bufferView":2,"byteOffset":252,"componentType":5123,"count":12,"type":"SCALAR"},{"bufferView":2,"byteOffset":276,"componentType":5123,"count":6,"type":"SCALAR"},{"bufferView":2,"byteOffset":288,"componentType":5123,"count":6,"type":"SCALAR"},{"bufferView":2,"byteOffset":300,"componentType":5123,"count":12,"type":"SCALAR"},{"bufferView":2,"byteOffset":324,"componentType":5123,"count":6,"type":"SCALAR"},{"bufferView":2,"byteOffset":336,"componentType":5123,"count":6,"type":"SCALAR"},{"bufferView":2,"byteOffset":348,"componentType":5123,"count":6,"type":"SCALAR"},{"bufferView":2,"byteOffset":360,"componentType":5123,"count":6,"type":"SCALAR"},{"bufferView":2,"byteOffset":372,"componentType":5123,"count":12,"type":"SCALAR"},{"bufferView":2,"byteOffset":396,"componentType":5123,"count":6,"type":"SCALAR"},{"bufferView":2,"byteOffset":408,"componentType":5123,"count":6,"type":"SCALAR"},{"bufferView":2,"byteOffset":420,"componentType":5123,"count":12,"type":"SCALAR"},{"bufferView":2,"byteOffset":444,"componentType":5123,"count":6,"type":"SCALAR"},{"bufferView":2,"byteOffset":456,"componentType":5123,"count":6,"type":"SCALAR"},{"bufferView":2,"byteOffset":468,"componentType":5123,"count":6,"type":"SCALAR"},{"bufferView":2,"byteOffset":480,"componentType":5123,"count":6,"type":"SCALAR"},{"bufferView":2,"byteOffset":492,"componentType":5123,"count":6,"type":"SCALAR"},{"bufferView":2,"byteOffset":504,"componentType":5123,"count":6,"type":"SCALAR"},{"bufferView":2,"byteOffset":516,"componentType":5123,"count":6,"type":"SCALAR"},{"bufferView":2,"byteOffset":528,"componentType":5123,"count":6,"type":"SCALAR"},{"bufferView":2,"byteOffset":540,"componentType":5123,"count":6,"type":"SCALAR"},{"bufferView":2,"byteOffset":552,"componentType":5123,"count":6,"type":"SCALAR"},{"bufferView":2,"byteOffset":564,"componentType":5123,"count":6,"type":"SCALAR"},{"bufferView":2,"byteOffset":576,"componentType":5123,"count":6,"type":"SCALAR"},{"bufferView":2,"byteOffset":588,"componentType":5123,"count":6,"type":"SCALAR"},{"bufferView":2,"byteOffset":600,"componentType":5123,"count":6,"type":"SCALAR"},{"bufferView":2,"byteOffset":612,"componentType":5123,"count":6,"type":"SCALAR"},{"bufferView":2,"byteOffset":624,"componentType":5123,"count":6,"type":"SCALAR"},{"bufferView":2,"byteOffset":636,"componentType":5123,"count":6,"type":"SCALAR"},{"bufferView":2,"byteOffset":648,"componentType":5123,"count":6,"type":"SCALAR"},{"bufferView":2,"byteOffset":660,"componentType":5123,"count":6,"type":"SCALAR"},{"bufferView":2,"byteOffset":672,"componentType":5123,"count":6,"type":"SCALAR"},{"bufferView":2,"byteOffset":684,"componentType":5123,"count":6,"type":"SCALAR"}],"asset":{"generator":"Open CASCADE Technology 7.8 [dev.opencascade.org]","version":"2.0"},"bufferViews":[{"buffer":0,"byteLength":2592,"byteOffset":0,"byteStride":12,"target":34962},{"buffer":0,"byteLength":2592,"byteOffset":2592,"byteStride":12,"target":34962},{"buffer":0,"byteLength":696,"byteOffset":5184,"target":34963}],"buffers":[{"byteLength":5880,"uri":"Hylly_004.bin"}],"materials":[{"name":"mat_0","pbrMetallicRoughness":{"baseColorFactor":[0.4178845286369324,0.4620771110057831,0.508880615234375,1.0]},"doubleSided":true}],"meshes":[{"name":"Pohja","primitives":[{"attributes":{"NORMAL":50,"POSITION":0},"indices":100,"material":0,"mode":4},{"attributes":{"NORMAL":51,"POSITION":1},"indices":101,"material":0,"mode":4},{"attributes":{"NORMAL":52,"POSITION":2},"indices":102,"material":0,"mode":4},{"attributes":{"NORMAL":53,"POSITION":3},"indices":103,"material":0,"mode":4},{"attributes":{"NORMAL":54,"POSITION":4},"indices":104,"material":0,"mode":4},{"attributes":{"NORMAL":55,"POSITION":5},"indices":105,"material":0,"mode":4},{"attributes":{"NORMAL":56,"POSITION":6},"indices":106,"material":0,"mode":4},{"attributes":{"NORMAL":57,"POSITION":7},"indices":107,"material":0,"mode":4},{"attributes":{"NORMAL":58,"POSITION":8},"indices":108,"material":0,"mode":4},{"attributes":{"NORMAL":59,"POSITION":9},"indices":109,"material":0,"mode":4},{"attributes":{"NORMAL":60,"POSITION":10},"indices":110,"material":0,"mode":4},{"attributes":{"NORMAL":61,"POSITION":11},"indices":111,"material":0,"mode":4},{"attributes":{"NORMAL":62,"POSITION":12},"indices":112,"material":0,"mode":4},{"attributes":{"NORMAL":63,"POSITION":13},"indices":113,"material":0,"mode":4},{"attributes":{"NORMAL":64,"POSITION":14},"indices":114,"material":0,"mode":4},{"attributes":{"NORMAL":65,"POSITION":15},"indices":115,"material":0,"mode":4},{"attributes":{"NORMAL":66,"POSITION":16},"indices":116,"material":0,"mode":4},{"attributes":{"NORMAL":67,"POSITION":17},"indices":117,"material":0,"mode":4},{"attributes":{"NORMAL":68,"POSITION":18},"indices":118,"material":0,"mode":4},{"attributes":{"NORMAL":69,"POSITION":19},"indices":119,"material":0,"mode":4},{"attributes":{"NORMAL":70,"POSITION":20},"indices":120,"material":0,"mode":4},{"attributes":{"NORMAL":71,"POSITION":21},"indices":121,"material":0,"mode":4},{"attributes":{"NORMAL":72,"POSITION":22},"indices":122,"material":0,"mode":4},{"attributes":{"NORMAL":73,"POSITION":23},"indices":123,"material":0,"mode":4},{"attributes":{"NORMAL":74,"POSITION":24},"indices":124,"material":0,"mode":4},{"attributes":{"NORMAL":75,"POSITION":25},"indices":125,"material":0,"mode":4},{"attributes":{"NORMAL":76,"POSITION":26},"indices":126,"material":0,"mode":4},{"attributes":{"NORMAL":77,"POSITION":27},"indices":127,"material":0,"mode":4},{"attributes":{"NORMAL":78,"POSITION":28},"indices":128,"material":0,"mode":4},{"attributes":{"NORMAL":79,"POSITION":29},"indices":129,"material":0,"mode":4},{"attributes":{"NORMAL":80,"POSITION":30},"indices":130,"material":0,"mode":4},{"attributes":{"NORMAL":81,"POSITION":31},"indices":131,"material":0,"mode":4},{"attributes":{"NORMAL":82,"POSITION":32},"indices":132,"material":0,"mode":4},{"attributes":{"NORMAL":83,"POSITION":33},"indices":133,"material":0,"mode":4},{"attributes":{"NORMAL":84,"POSITION":34},"indices":134,"material":0,"mode":4},{"attributes":{"NORMAL":85,"POSITION":35},"indices":135,"material":0,"mode":4},{"attributes":{"NORMAL":86,"POSITION":36},"indices":136,"material":0,"mode":4},{"attributes":{"NORMAL":87,"POSITION":37},"indices":137,"material":0,"mode":4}]},{"name":"attach_left","primitives":[{"attributes":{"NORMAL":88,"POSITION":38},"indices":138,"material":0,"mode":4},{"attributes":{"NORMAL":89,"POSITION":39},"indices":139,"material":0,"mode":4},{"attributes":{"NORMAL":90,"POSITION":40},"indices":140,"material":0,"mode":4},{"attributes":{"NORMAL":91,"POSITION":41},"indices":141,"material":0,"mode":4},{"attributes":{"NORMAL":92,"POSITION":42},"indices":142,"material":0,"mode":4},{"attributes":{"NORMAL":93,"POSITION":43},"indices":143,"material":0,"mode":4}]},{"name":"attach_right","primitives":[{"attributes":{"NORMAL":94,"POSITION":44},"indices":144,"material":0,"mode":4},{"attributes":{"NORMAL":95,"POSITION":45},"indices":145,"material":0,"mode":4},{"attributes":{"NORMAL":96,"POSITION":46},"indices":146,"material":0,"mode":4},{"attributes":{"NORMAL":97,"POSITION":47},"indices":147,"material":0,"mode":4},{"attributes":{"NORMAL":98,"POSITION":48},"indices":148,"material":0,"mode":4},{"attributes":{"NORMAL":99,"POSITION":49},"indices":149,"material":0,"mode":4}]}],"nodes":[{"children":[1,2,3],"name":"Unnamed"},{"mesh":0,"name":"Pohja"},{"translation":[0.0,0.2,-0.23],"mesh":1,"name":"attach_left"},{"translation":[0.73,0.2,-0.23],"mesh":2,"name":"attach_right"}],"scene":0,"scenes":[{"nodes":[0]}]}