{"accessors":[{"bufferView":0,"byteOffset":0,"componentType":5126,"count":95,"max":[0.25,0.02,0.0],"min":[0.0,0.02,-1.75],"type":"VEC3"},{"bufferView":0,"byteOffset":1140,"componentType":5126,"count":4,"max":[0.17500000000000002,0.02,-1.75],"min":[0.0,0.0,-1.75],"type":"VEC3"},{"bufferView":0,"byteOffset":1188,"componentType":5126,"count":60,"max":[0.25,0.02,-1.675],"min":[0.17500000000000002,0.0,-1.75],"type":"VEC3"},{"bufferView":0,"byteOffset":1908,"componentType":5126,"count":4,"max":[0.0,0.02,0.0],"min":[0.0,0.0,-1.75],"type":"VEC3"},{"bufferView":0,"byteOffset":1956,"componentType":5126,"count":4,"max":[0.25,0.02,0.0],"min":[0.25,0.0,-1.675],"type":"VEC3"},{"bufferView":0,"byteOffset":2004,"componentType":5126,"count":4,"max":[0.075,0.02,0.0],"min":[0.0,0.0,0.0],"type":"VEC3"},{"bufferView":0,"byteOffset":2052,"componentType":5126,"count":4,"max":[0.25,0.02,0.0],"min":[0.17500000000000002,0.0,0.0],"type":"VEC3"},{"bufferView":0,"byteOffset":2100,"componentType":5126,"count":4,"max":[0.075,0.02,0.0],"min":[0.075,0.0,-1.62],"type":"VEC3"},{"bufferView":0,"byteOffset":2148,"componentType":5126,"count":4,"max":[0.17500000000000002,0.02,0.0],"min":[0.17500000000000002,0.0,-1.62],"type":"VEC3"},{"bufferView":0,"byteOffset":2196,"componentType":5126,"count":60,"max":[0.105,0.02,-1.62],"min":[0.075,0.0,-1.6500000000000001],"type":"VEC3"},{"bufferView":0,"byteOffset":2916,"componentType":5126,"count":60,"max":[0.17500000000000002,0.02,-1.62],"min":[0.145,0.0,-1.6500000000000001],"type":"VEC3"},{"bufferView":0,"byteOffset":3636,"componentType":5126,"count":4,"max":[0.145,0.02,-1.6500000000000001],"min":[0.105,0.0,-1.6500000000000001],"type":"VEC3"},{"bufferView":0,"byteOffset":3684,"componentType":5126,"count":95,"max":[0.25,0.0,0.0],"min":[0.0,0.0,-1.75],"type":"VEC3"},{"bufferView":0,"byteOffset":4824,"componentType":5126,"count":4,"max":[0.0,0.02,0.0],"min":[0.0,0.0,-0.02],"type":"VEC3"},{"bufferView":0,"byteOffset":4872,"componentType":5126,"count":4,"max":[0.02,0.02,0.0],"min":[0.02,0.0,-0.02],"type":"VEC3"},{"bufferView":0,"byteOffset":4920,"componentType":5126,"count":4,"max":[0.02,0.02,0.0],"min":[0.0,0.0,0.0],"type":"VEC3"},{"bufferView":0,"byteOffset":4968,"componentType":5126,"count":4,"max":[0.02,0.02,-0.02],"min":[0.0,0.0,-0.02],"type":"VEC3"},{"bufferView":0,"byteOffset":5016,"componentType":5126,"count":4,"max":[0.02,0.0,0.0],"min":[0.0,0.0,-0.02],"type":"VEC3"},{"bufferView":0,"byteOffset":5064,"componentType":5126,"count":4,"max":[0.02,0.02,0.0],"min":[0.0,0.02,-0.02],"type":"VEC3"},{"bufferView":0,"byteOffset":5112,"componentType":5126,"count":4,"max":[0.0,0.02,0.0],"min":[0.0,0.0,-0.02],"type":"VEC3"},{"bufferView":0,"byteOffset":5160,"componentType":5126,"count":4,"max":[0.02,0.02,0.0],"min":[0.02,0.0,-0.02],"type":"VEC3"},{"bufferView":0,"byteOffset":5208,"componentType":5126,"count":4,"max":[0.02,0.02,0.0],"min":[0.0,0.0,0.0],"type":"VEC3"},{"bufferView":0,"byteOffset":5256,"componentType":5126,"count":4,"max":[0.02,0.02,-0.02],"min":[0.0,0.0,-0.02],"type":"VEC3"},{"bufferView":0,"byteOffset":5304,"componentType":5126,"count":4,"max":[0.02,0.0,0.0],"min":[0.0,0.0,-0.02],"type":"VEC3"},{"bufferView":0,"byteOffset":5352,"componentType":5126,"count":4,"max":[0.02,0.02,0.0],"min":[0.0,0.02,-0.02],"type":"VEC3"},{"bufferView":0,"byteOffset":5400,"componentType":5126,"count":4,"max":[0.0,0.02,0.0],"min":[0.0,0.0,-0.02],"type":"VEC3"},{"bufferView":0,"byteOffset":5448,"componentType":5126,"count":4,"max":[0.02,0.02,0.0],"min":[0.02,0.0,-0.02],"type":"VEC3"},{"bufferView":0,"byteOffset":5496,"componentType":5126,"count":4,"max":[0.02,0.02,0.0],"min":[0.0,0.0,0.0],"type":"VEC3"},{"bufferView":0,"byteOffset":5544,"componentType":5126,"count":4,"max":[0.02,0.02,-0.02],"min":[0.0,0.0,-0.02],"type":"VEC3"},{"bufferView":0,"byteOffset":5592,"componentType":5126,"count":4,"max":[0.02,0.0,0.0],"min":[0.0,0.0,-0.02],"type":"VEC3"},{"bufferView":0,"byteOffset":5640,"componentType":5126,"count":4,"max":[0.02,0.02,0.0],"min":[0.0,0.02,-0.02],"type":"VEC3"},{"bufferView":0,"byteOffset":5688,"componentType":5126,"count":4,"max":[0.0,0.02,0.0],"min":[0.0,0.0,-0.02],"type":"VEC3"},{"bufferView":0,"byteOffset":5736,"componentType":5126,"count":4,"max":[0.02,0.02,0.0],"min":[0.02,0.0,-0.02],"type":"VEC3"},{"bufferView":0,"byteOffset":5784,"componentType":5126,"count":4,"max":[0.02,0.02,0.0],"min":[0.0,0.0,0.0],"type":"VEC3"},{"bufferView":0,"byteOffset":5832,"componentType":5126,"count":4,"max":[0.02,0.02,-0.02],"min":[0.0,0.0,-0.02],"type":"VEC3"},{"bufferView":0,"byteOffset":5880,"componentType":5126,"count":4,"max":[0.02,0.0,0.0],"min":[0.0,0.0,-0.02],"type":"VEC3"},{"bufferView":0,"byteOffset":5928,"componentType":5126,"count":4,"max":[0.02,0.02,0.0],"min":[0.0,0.02,-0.02],"type":"VEC3"},{"bufferView":1,"byteOffset":0,"componentType":5126,"count":95,"type":"VEC3"},{"bufferView":1,"byteOffset":1140,"componentType":5126,"count":4,"type":"VEC3"},{"bufferView":1,"byteOffset":1188,"componentType":5126,"count":60,"type":"VEC3"},{"bufferView":1,"byteOffset":1908,"componentType":5126,"count":4,"type":"VEC3"},{"bufferView":1,"byteOffset":1956,"componentType":5126,"count":4,"type":"VEC3"},{"bufferView":1,"byteOffset":2004,"componentType":5126,"count":4,"type":"VEC3"},{"bufferView":1,"byteOffset":2052,"componentType":5126,"count":4,"type":"VEC3"},{"bufferView":1,"byteOffset":2100,"componentType":5126,"count":4,"type":"VEC3"},{"bufferView":1,"byteOffset":2148,"componentType":5126,"count":4,"type":"VEC3"},{"bufferView":1,"byteOffset":2196,"componentType":5126,"count":60,"type":"VEC3"},{"bufferView":1,"byteOffset":2916,"componentType":5126,"count":60,"type":"VEC3"},{"bufferView":1,"byteOffset":3636,"componentType":5126,"count":4,"type":"VEC3"},{"bufferView":1,"byteOffset":3684,"componentType":5126,"count":95,"type":"VEC3"},{"bufferView":1,"byteOffset":4824,"componentType":5126,"count":4,"type":"VEC3"},{"bufferView":1,"byteOffset":4872,"componentType":5126,"count":4,"type":"VEC3"},{"bufferView":1,"byteOffset":4920,"componentType":5126,"count":4,"type":"VEC3"},{"bufferView":1,"byteOffset":4968,"componentType":5126,"count":4,"type":"VEC3"},{"bufferView":1,"byteOffset":5016,"componentType":5126,"count":4,"type":"VEC3"},{"bufferView":1,"byteOffset":5064,"componentType":5126,"count":4,"type":"VEC3"},{"bufferView":1,"byteOffset":5112,"componentType":5126,"count":4,"type":"VEC3"},{"bufferView":1,"byteOffset":5160,"componentType":5126,"count":4,"type":"VEC3"},{"bufferView":1,"byteOffset":5208,"componentType":5126,"count":4,"type":"VEC3"},{"bufferView":1,"byteOffset":5256,"componentType":5126,"count":4,"type":"VEC3"},{"bufferView":1,"byteOffset":5304,"componentType":5126,"count":4,"type":"VEC3"},{"bufferView":1,"byteOffset":5352,"componentType":5126,"count":4,"type":"VEC3"},{"bufferView":1,"byteOffset":5400,"componentType":5126,"count":4,"type":"VEC3"},{"bufferView":1,"byteOffset":5448,"componentType":5126,"count":4,"type":"VEC3"},{"bufferView":1,"byteOffset":5496,"componentType":5126,"count":4,"type":"VEC3"},{"bufferView":1,"byteOffset":5544,"componentType":5126,"count":4,"type":"VEC3"},{"bufferView":1,"byteOffset":5592,"componentType":5126,"count":4,"type":"VEC3"},{"bufferView":1,"byteOffset":5640,"componentType":5126,"count":4,"type":"VEC3"},{"bufferView":1,"byteOffset":5688,"componentType":5126,"count":4,"type":"VEC3"},{"bufferView":1,"byteOffset":5736,"componentType":5126,"count":4,"type":"VEC3"},{"bufferView":1,"byteOffset":5784,"componentType":5126,"count":4,"type":"VEC3"},{"bufferView":1,"byteOffset":5832,"componentType":5126,"count":4,"type":"VEC3"},{"bufferView":1,"byteOffset":5880,"componentType":5126,"count":4,"type":"VEC3"},{"bufferView":1,"byteOffset":5928,"componentType":5126,"count":4,"type":"VEC3"},{"bufferView":2,"byteOffset":0,"componentType":5123,"count":279,"type":"SCALAR"},{"bufferView":2,"byteOffset":560,"componentType":5123,"count":6,"type":"SCALAR"},{"bufferView":2,"byteOffset":572,"componentType":5123,"count":174,"type":"SCALAR"},{"bufferView":2,"byteOffset":920,"componentType":5123,"count":6,"type":"SCALAR"},{"bufferView":2,"byteOffset":932,"componentType":5123,"count":6,"type":"SCALAR"},{"bufferView":2,"byteOffset":944,"componentType":5123,"count":6,"type":"SCALAR"},{"bufferView":2,"byteOffset":956,"componentType":5123,"count":6,"type":"SCALAR"},{"bufferView":2,"byteOffset":968,"componentType":5123,"count":6,"type":"SCALAR"},{"bufferView":2,"byteOffset":980,"componentType":5123,"count":6,"type":"SCALAR"},{"bufferView":2,"byteOffset":992,"componentType":5123,"count":174,"type":"SCALAR"},{"bufferView":2,"byteOffset":1340,"componentType":5123,"count":174,"type":"SCALAR"},{"bufferView":2,"byteOffset":1688,"componentType":5123,"count":6,"type":"SCALAR"},{"bufferView":2,"byteOffset":1700,"componentType":5123,"count":279,"type":"SCALAR"},{"bufferView":2,"byteOffset":2260,"componentType":5123,"count":6,"type":"SCALAR"},{"bufferView":2,"byteOffset":2272,"componentType":5123,"count":6,"type":"SCALAR"},{"bufferView":2,"byteOffset":2284,"componentType":5123,"count":6,"type":"SCALAR"},{"bufferView":2,"byteOffset":2296,"componentType":5123,"count":6,"type":"SCALAR"},{"bufferView":2,"byteOffset":2308,"componentType":5123,"count":6,"type":"SCALAR"},{"bufferView":2,"byteOffset":2320,"componentType":5123,"count":6,"type":"SCALAR"},{"bufferView":2,"byteOffset":2332,"componentType":5123,"count":6,"type":"SCALAR"},{"bufferView":2,"byteOffset":2344,"componentType":5123,"count":6,"type":"SCALAR"},{"bufferView":2,"byteOffset":2356,"componentType":5123,"count":6,"type":"SCALAR"},{"bufferView":2,"byteOffset":2368,"componentType":5123,"count":6,"type":"SCALAR"},{"bufferView":2,"byteOffset":2380,"componentType":5123,"count":6,"type":"SCALAR"},{"bufferView":2,"byteOffset":2392,"componentType":5123,"count":6,"type":"SCALAR"},{"bufferView":2,"byteOffset":2404,"componentType":5123,"count":6,"type":"SCALAR"},{"bufferView":2,"byteOffset":2416,"componentType":5123,"count":6,"type":"SCALAR"},{"bufferView":2,"byteOffset":2428,"componentType":5123,"count":6,"type":"SCALAR"},{"bufferView":2,"byteOffset":2440,"componentType":5123,"count":6,"type":"SCALAR"},{"bufferView":2,"byteOffset":2452,"componentType":5123,"count":6,"type":"SCALAR"},{"bufferView":2,"byteOffset":2464,"componentType":5123,"count":6,"type":"SCALAR"},{"bufferView":2,"byteOffset":2476,"componentType":5123,"count":6,"type":"SCALAR"},{"bufferView":2,"byteOffset":2488,"componentType":5123,"count":6,"type":"SCALAR"},{"bufferView":2,"byteOffset":2500,"componentType":5123,"count":6,"type":"SCALAR"},{"bufferView":2,"byteOffset":2512,"componentType":5123,"count":6,"type":"SCALAR"},{"bufferView":2,"byteOffset":2524,"componentType":5123,"count":6,"type":"SCALAR"},{"bufferView":2,"byteOffset":2536,"componentType":5123,"count":6,"type":"SCALAR"}],"asset":{"generator":"Open CASCADE Technology 7.8 [dev.opencascade.org]","version":"2.0"},"bufferViews":[{"buffer":0,"byteLength":5976,"byteOffset":0,"byteStride":12,"target":34962},{"buffer":0,"byteLength":5976,"byteOffset":5976,"byteStride":12,"target":34962},{"buffer":0,"byteLength":2548,"byteOffset":11952,"target":34963}],"buffers":[{"byteLength":14500,"uri":"Support_003.bin"}],"materials":[{"name":"mat_0","pbrMetallicRoughness":{"baseColorFactor":[0.4178845286369324,0.4620771110057831,0.508880615234375,1.0]},"doubleSided":true}],"meshes":[{"name":"Main","primitives":[{"attributes":{"NORMAL":37,"POSITION":0},"indices":74,"material":0,"mode":4},{"attributes":{"NORMAL":38,"POSITION":1},"indices":75,"material":0,"mode":4},{"attributes":{"NORMAL":39,"POSITION":2},"indices":76,"material":0,"mode":4},{"attributes":{"NORMAL":40,"POSITION":3},"indices":77,"material":0,"mode":4},{"attributes":{"NORMAL":41,"POSITION":4},"indices":78,"material":0,"mode":4},{"attributes":{"NORMAL":42,"POSITION":5},"indices":79,"material":0,"mode":4},{"attributes":{"NORMAL":43,"POSITION":6},"indices":80,"material":0,"mode":4},{"attributes":{"NORMAL":44,"POSITION":7},"indices":81,"material":0,"mode":4},{"attributes":{"NORMAL":45,"POSITION":8},"indices":82,"material":0,"mode":4},{"attributes":{"NORMAL":46,"POSITION":9},"indices":83,"material":0,"mode":4},{"attributes":{"NORMAL":47,"POSITION":10},"indices":84,"material":0,"mode":4},{"attributes":{"NORMAL":48,"POSITION":11},"indices":85,"material":0,"mode":4},{"attributes":{"NORMAL":49,"POSITION":12},"indices":86,"material":0,"mode":4}]},{"name":"attach_1","primitives":[{"attributes":{"NORMAL":50,"POSITION":13},"indices":87,"material":0,"mode":4},{"attributes":{"NORMAL":51,"POSITION":14},"indices":88,"material":0,"mode":4},{"attributes":{"NORMAL":52,"POSITION":15},"indices":89,"material":0,"mode":4},{"attributes":{"NORMAL":53,"POSITION":16},"indices":90,"material":0,"mode":4},{"attributes":{"NORMAL":54,"POSITION":17},"indices":91,"material":0,"mode":4},{"attributes":{"NORMAL":55,"POSITION":18},"indices":92,"material":0,"mode":4}]},{"name":"attach_2","primitives":[{"attributes":{"NORMAL":56,"POSITION":19},"indices":93,"material":0,"mode":4},{"attributes":{"NORMAL":57,"POSITION":20},"indices":94,"material":0,"mode":4},{"attributes":{"NORMAL":58,"POSITION":21},"indices":95,"material":0,"mode":4},{"attributes":{"NORMAL":59,"POSITION":22},"indices":96,"material":0,"mode":4},{"attributes":{"NORMAL":60,"POSITION":23},"indices":97,"material":0,"mode":4},{"attributes":{"NORMAL":61,"POSITION":24},"indices":98,"material":0,"mode":4}]},{"name":"attach_3","primitives":[{"attributes":{"NORMAL":62,"POSITION":25},"indices":99,"material":0,"mode":4},{"attributes":{"NORMAL":63,"POSITION":26},"indices":100,"material":0,"mode":4},{"attributes":{"NORMAL":64,"POSITION":27},"indices":101,"material":0,"mode":4},{"attributes":{"NORMAL":65,"POSITION":28},"indices":102,"material":0,"mode":4},{"attributes":{"NORMAL":66,"POSITION":29},"indices":103,"material":0,"mode":4},{"attributes":{"NORMAL":67,"POSITION":30},"indices":104,"material":0,"mode":4}]},{"name":"attach_4","primitives":[{"attributes":{"NORMAL":68,"POSITION":31},"indices":105,"material":0,"mode":4},{"attributes":{"NORMAL":69,"POSITION":32},"indices":106,"material":0,"mode":4},{"attributes":{"NORMAL":70,"POSITION":33},"indices":107,"material":0,"mode":4},{"attributes":{"NORMAL":71,"POSITION":34},"indices":108,"material":0,"mode":4},{"attributes":{"NORMAL":72,"POSITION":35},"indices":109,"material":0,"mode":4},{"attributes":{"NORMAL":73,"POSITION":36},"indices":110,"material":0,"mode":4}]}],"nodes":[{"children":[1,2,3,4,5],"name":"Unnamed"},{"rotation":[0.5,-0.5,0.5,0.5],"translation":[-0.01,0.0,-0.25],"mesh":0,"name":"Main"},{"translation":[-0.03,0.4,0.0],"mesh":1,"name":"attach_1"},{"translation":[-0.03,0.8,0.0],"mesh":2,"name":"attach_2"},{"translation":[-0.03,1.2,0.0],"mesh":3,"name":"attach_3"},{"translation":[-0.03,1.6,0.0],"mesh":4,"name":"attach_4"}],"scene":0,"scenes":[{"nodes":[0]}]}