{"accessors":[{"bufferView":0,"byteOffset":0,"componentType":5126,"count":95,"max":[0.25,0.02,0.0],"min":[0.0,0.02,-2.0],"type":"VEC3"},{"bufferView":0,"byteOffset":1140,"componentType":5126,"count":4,"max":[0.225,0.02,-1.4000000000000001],"min":[0.1,0.0,-1.4000000000000001],"type":"VEC3"},{"bufferView":0,"byteOffset":1188,"componentType":5126,"count":60,"max":[0.25,0.02,-1.4000000000000001],"min":[0.225,0.0,-1.425],"type":"VEC3"},{"bufferView":0,"byteOffset":1908,"componentType":5126,"count":60,"max":[0.1,0.02,-1.375],"min":[0.075,0.0,-1.4000000000000001],"type":"VEC3"},{"bufferView":0,"byteOffset":2628,"componentType":5126,"count":4,"max":[0.25,0.02,-1.425],"min":[0.25,0.0,-1.925],"type":"VEC3"},{"bufferView":0,"byteOffset":2676,"componentType":5126,"count":4,"max":[0.075,0.02,-0.62],"min":[0.075,0.0,-1.375],"type":"VEC3"},{"bufferView":0,"byteOffset":2724,"componentType":5126,"count":60,"max":[0.25,0.02,-1.925],"min":[0.17500000000000002,0.0,-2.0],"type":"VEC3"},{"bufferView":0,"byteOffset":3444,"componentType":5126,"count":4,"max":[0.25,0.02,-0.62],"min":[0.075,0.0,-0.62],"type":"VEC3"},{"bufferView":0,"byteOffset":3492,"componentType":5126,"count":4,"max":[0.17500000000000002,0.02,-2.0],"min":[0.0,0.0,-2.0],"type":"VEC3"},{"bufferView":0,"byteOffset":3540,"componentType":5126,"count":4,"max":[0.25,0.02,0.0],"min":[0.25,0.0,-0.62],"type":"VEC3"},{"bufferView":0,"byteOffset":3588,"componentType":5126,"count":4,"max":[0.0,0.02,0.0],"min":[0.0,0.0,-2.0],"type":"VEC3"},{"bufferView":0,"byteOffset":3636,"componentType":5126,"count":4,"max":[0.25,0.02,0.0],"min":[0.0,0.0,0.0],"type":"VEC3"},{"bufferView":0,"byteOffset":3684,"componentType":5126,"count":95,"max":[0.25,0.0,0.0],"min":[0.0,0.0,-2.0],"type":"VEC3"},{"bufferView":1,"byteOffset":0,"componentType":5126,"count":95,"type":"VEC3"},{"bufferView":1,"byteOffset":1140,"componentType":5126,"count":4,"type":"VEC3"},{"bufferView":1,"byteOffset":1188,"componentType":5126,"count":60,"type":"VEC3"},{"bufferView":1,"byteOffset":1908,"componentType":5126,"count":60,"type":"VEC3"},{"bufferView":1,"byteOffset":2628,"componentType":5126,"count":4,"type":"VEC3"},{"bufferView":1,"byteOffset":2676,"componentType":5126,"count":4,"type":"VEC3"},{"bufferView":1,"byteOffset":2724,"componentType":5126,"count":60,"type":"VEC3"},{"bufferView":1,"byteOffset":3444,"componentType":5126,"count":4,"type":"VEC3"},{"bufferView":1,"byteOffset":3492,"componentType":5126,"count":4,"type":"VEC3"},{"bufferView":1,"byteOffset":3540,"componentType":5126,"count":4,"type":"VEC3"},{"bufferView":1,"byteOffset":3588,"componentType":5126,"count":4,"type":"VEC3"},{"bufferView":1,"byteOffset":3636,"componentType":5126,"count":4,"type":"VEC3"},{"bufferView":1,"byteOffset":3684,"componentType":5126,"count":95,"type":"VEC3"},{"bufferView":2,"byteOffset":0,"componentType":5123,"count":279,"type":"SCALAR"},{"bufferView":2,"byteOffset":560,"componentType":5123,"count":6,"type":"SCALAR"},{"bufferView":2,"byteOffset":572,"componentType":5123,"count":174,"type":"SCALAR"},{"bufferView":2,"byteOffset":920,"componentType":5123,"count":174,"type":"SCALAR"},{"bufferView":2,"byteOffset":1268,"componentType":5123,"count":6,"type":"SCALAR"},{"bufferView":2,"byteOffset":1280,"componentType":5123,"count":6,"type":"SCALAR"},{"bufferView":2,"byteOffset":1292,"componentType":5123,"count":174,"type":"SCALAR"},{"bufferView":2,"byteOffset":1640,"componentType":5123,"count":6,"type":"SCALAR"},{"bufferView":2,"byteOffset":1652,"componentType":5123,"count":6,"type":"SCALAR"},{"bufferView":2,"byteOffset":1664,"componentType":5123,"count":6,"type":"SCALAR"},{"bufferView":2,"byteOffset":1676,"componentType":5123,"count":6,"type":"SCALAR"},{"bufferView":2,"byteOffset":1688,"componentType":5123,"count":6,"type":"SCALAR"},{"bufferView":2,"byteOffset":1700,"componentType":5123,"count":279,"type":"SCALAR"}],"asset":{"generator":"Open CASCADE Technology 7.8 [dev.opencascade.org]","version":"2.0"},"bufferViews":[{"buffer":0,"byteLength":4824,"byteOffset":0,"byteStride":12,"target":34962},{"buffer":0,"byteLength":4824,"byteOffset":4824,"byteStride":12,"target":34962},{"buffer":0,"byteLength":2260,"byteOffset":9648,"target":34963}],"buffers":[{"byteLength":11908,"uri":"Support_005_lovi.bin"}],"materials":[{"name":"mat_0","pbrMetallicRoughness":{"baseColorFactor":[0.4178845286369324,0.4620771110057831,0.508880615234375,1.0]},"doubleSided":true}],"meshes":[{"name":"Main","primitives":[{"attributes":{"NORMAL":13,"POSITION":0},"indices":26,"material":0,"mode":4},{"attributes":{"NORMAL":14,"POSITION":1},"indices":27,"material":0,"mode":4},{"attributes":{"NORMAL":15,"POSITION":2},"indices":28,"material":0,"mode":4},{"attributes":{"NORMAL":16,"POSITION":3},"indices":29,"material":0,"mode":4},{"attributes":{"NORMAL":17,"POSITION":4},"indices":30,"material":0,"mode":4},{"attributes":{"NORMAL":18,"POSITION":5},"indices":31,"material":0,"mode":4},{"attributes":{"NORMAL":19,"POSITION":6},"indices":32,"material":0,"mode":4},{"attributes":{"NORMAL":20,"POSITION":7},"indices":33,"material":0,"mode":4},{"attributes":{"NORMAL":21,"POSITION":8},"indices":34,"material":0,"mode":4},{"attributes":{"NORMAL":22,"POSITION":9},"indices":35,"material":0,"mode":4},{"attributes":{"NORMAL":23,"POSITION":10},"indices":36,"material":0,"mode":4},{"attributes":{"NORMAL":24,"POSITION":11},"indices":37,"material":0,"mode":4},{"attributes":{"NORMAL":25,"POSITION":12},"indices":38,"material":0,"mode":4}]}],"nodes":[{"mesh":0,"name":"Main"}],"scene":0,"scenes":[{"nodes":[0]}]}