{"accessors":[{"bufferView":0,"byteOffset":0,"componentType":5126,"count":260,"max":[0.425,1.0,0.424958938500212],"min":[-0.4248357619351855,0.0,-0.42495893850021194],"type":"VEC3"},{"bufferView":0,"byteOffset":3120,"componentType":5126,"count":183,"max":[0.7949666445559589,0.8499866724091762,0.05000000000000002],"min":[0.42204857540335333,0.15,-0.05],"type":"VEC3"},{"bufferView":0,"byteOffset":5316,"componentType":5126,"count":176,"max":[0.7949666445559589,0.8499866724091762,0.05000000000000002],"min":[0.42204857540335333,0.15,0.05],"type":"VEC3"},{"bufferView":0,"byteOffset":7428,"componentType":5126,"count":179,"max":[0.7449671297845737,0.7999501887781879,0.05000000000000002],"min":[0.42204857540335333,0.2,-0.05],"type":"VEC3"},{"bufferView":0,"byteOffset":9576,"componentType":5126,"count":40,"max":[0.52,0.2299201157863352,0.05000000000000002],"min":[0.4220485754033534,0.2,-0.05],"type":"VEC3"},{"bufferView":0,"byteOffset":10056,"componentType":5126,"count":23,"max":[0.52,0.2299201157863352,0.05000000000000002],"min":[0.42204857540335333,0.15,0.05],"type":"VEC3"},{"bufferView":0,"byteOffset":10332,"componentType":5126,"count":25,"max":[0.52,0.1729548567792304,0.05000000000000002],"min":[0.42204857540335333,0.15,-0.05],"type":"VEC3"},{"bufferView":0,"byteOffset":10632,"componentType":5126,"count":113,"max":[0.425,0.0,0.424958938500212],"min":[-0.4248357619351855,0.0,-0.42495893850021194],"type":"VEC3"},{"bufferView":0,"byteOffset":11988,"componentType":5126,"count":23,"max":[0.52,0.2299201157863352,-0.04999999999999999],"min":[0.42204857540335333,0.15,-0.05],"type":"VEC3"},{"bufferView":0,"byteOffset":12264,"componentType":5126,"count":176,"max":[0.7949666445559589,0.8499866724091762,-0.04999999999999999],"min":[0.42204857540335333,0.15,-0.05],"type":"VEC3"},{"bufferView":0,"byteOffset":14376,"componentType":5126,"count":226,"max":[0.425,1.0,0.424958938500212],"min":[-0.4248357619351855,1.0,-0.42495893850021194],"type":"VEC3"},{"bufferView":0,"byteOffset":17088,"componentType":5126,"count":228,"max":[0.385,1.0,0.3849628031119567],"min":[-0.38485121963540336,0.04,-0.38496280311195663],"type":"VEC3"},{"bufferView":0,"byteOffset":19824,"componentType":5126,"count":113,"max":[0.385,0.04,0.3849628031119567],"min":[-0.38485121963540336,0.04,-0.38496280311195663],"type":"VEC3"},{"bufferView":0,"byteOffset":21180,"componentType":5126,"count":4,"max":[0.52,0.2,0.05],"min":[0.52,0.15,-0.05],"type":"VEC3"},{"bufferView":0,"byteOffset":21228,"componentType":5126,"count":4,"max":[0.52,0.2,0.05],"min":[0.52,0.15,-0.05],"type":"VEC3"},{"bufferView":1,"byteOffset":0,"componentType":5126,"count":260,"type":"VEC3"},{"bufferView":1,"byteOffset":3120,"componentType":5126,"count":183,"type":"VEC3"},{"bufferView":1,"byteOffset":5316,"componentType":5126,"count":176,"type":"VEC3"},{"bufferView":1,"byteOffset":7428,"componentType":5126,"count":179,"type":"VEC3"},{"bufferView":1,"byteOffset":9576,"componentType":5126,"count":40,"type":"VEC3"},{"bufferView":1,"byteOffset":10056,"componentType":5126,"count":23,"type":"VEC3"},{"bufferView":1,"byteOffset":10332,"componentType":5126,"count":25,"type":"VEC3"},{"bufferView":1,"byteOffset":10632,"componentType":5126,"count":113,"type":"VEC3"},{"bufferView":1,"byteOffset":11988,"componentType":5126,"count":23,"type":"VEC3"},{"bufferView":1,"byteOffset":12264,"componentType":5126,"count":176,"type":"VEC3"},{"bufferView":1,"byteOffset":14376,"componentType":5126,"count":226,"type":"VEC3"},{"bufferView":1,"byteOffset":17088,"componentType":5126,"count":228,"type":"VEC3"},{"bufferView":1,"byteOffset":19824,"componentType":5126,"count":113,"type":"VEC3"},{"bufferView":1,"byteOffset":21180,"componentType":5126,"count":4,"type":"VEC3"},{"bufferView":1,"byteOffset":21228,"componentType":5126,"count":4,"type":"VEC3"},{"bufferView":2,"byteOffset":0,"componentType":5123,"count":774,"type":"SCALAR"},{"bufferView":2,"byteOffset":1548,"componentType":5123,"count":543,"type":"SCALAR"},{"bufferView":2,"byteOffset":2636,"componentType":5123,"count":522,"type":"SCALAR"},{"bufferView":2,"byteOffset":3680,"componentType":5123,"count":531,"type":"SCALAR"},{"bufferView":2,"byteOffset":4744,"componentType":5123,"count":141,"type":"SCALAR"},{"bufferView":2,"byteOffset":5028,"componentType":5123,"count":63,"type":"SCALAR"},{"bufferView":2,"byteOffset":5156,"componentType":5123,"count":69,"type":"SCALAR"},{"bufferView":2,"byteOffset":5296,"componentType":5123,"count":333,"type":"SCALAR"},{"bufferView":2,"byteOffset":5964,"componentType":5123,"count":63,"type":"SCALAR"},{"bufferView":2,"byteOffset":6092,"componentType":5123,"count":522,"type":"SCALAR"},{"bufferView":2,"byteOffset":7136,"componentType":5123,"count":678,"type":"SCALAR"},{"bufferView":2,"byteOffset":8492,"componentType":5123,"count":678,"type":"SCALAR"},{"bufferView":2,"byteOffset":9848,"componentType":5123,"count":333,"type":"SCALAR"},{"bufferView":2,"byteOffset":10516,"componentType":5123,"count":6,"type":"SCALAR"},{"bufferView":2,"byteOffset":10528,"componentType":5123,"count":6,"type":"SCALAR"}],"asset":{"generator":"Open CASCADE Technology 7.8 [dev.opencascade.org]","version":"2.0"},"bufferViews":[{"buffer":0,"byteLength":21276,"byteOffset":0,"byteStride":12,"target":34962},{"buffer":0,"byteLength":21276,"byteOffset":21276,"byteStride":12,"target":34962},{"buffer":0,"byteLength":10540,"byteOffset":42552,"target":34963}],"buffers":[{"byteLength":53092,"uri":"CAD_kuppi-Kuppi_end.bin"}],"materials":[{"name":"mat_0","pbrMetallicRoughness":{"baseColorFactor":[0.41788509488105774,0.4620770215988159,0.5088813304901123,1.0]},"doubleSided":true}],"meshes":[{"name":"Kuppi_end","primitives":[{"attributes":{"NORMAL":15,"POSITION":0},"indices":30,"material":0,"mode":4},{"attributes":{"NORMAL":16,"POSITION":1},"indices":31,"material":0,"mode":4},{"attributes":{"NORMAL":17,"POSITION":2},"indices":32,"material":0,"mode":4},{"attributes":{"NORMAL":18,"POSITION":3},"indices":33,"material":0,"mode":4},{"attributes":{"NORMAL":19,"POSITION":4},"indices":34,"material":0,"mode":4},{"attributes":{"NORMAL":20,"POSITION":5},"indices":35,"material":0,"mode":4},{"attributes":{"NORMAL":21,"POSITION":6},"indices":36,"material":0,"mode":4},{"attributes":{"NORMAL":22,"POSITION":7},"indices":37,"material":0,"mode":4},{"attributes":{"NORMAL":23,"POSITION":8},"indices":38,"material":0,"mode":4},{"attributes":{"NORMAL":24,"POSITION":9},"indices":39,"material":0,"mode":4},{"attributes":{"NORMAL":25,"POSITION":10},"indices":40,"material":0,"mode":4},{"attributes":{"NORMAL":26,"POSITION":11},"indices":41,"material":0,"mode":4},{"attributes":{"NORMAL":27,"POSITION":12},"indices":42,"material":0,"mode":4},{"attributes":{"NORMAL":28,"POSITION":13},"indices":43,"material":0,"mode":4},{"attributes":{"NORMAL":29,"POSITION":14},"indices":44,"material":0,"mode":4}]}],"nodes":[{"mesh":0,"name":"Kuppi_end"}],"scene":0,"scenes":[{"nodes":[0]}]}